<mxfile host="app.diagrams.net" modified="2021-10-20T16:16:12.329Z" agent="5.0 (X11)" etag="wCoptfWNAEwVZvbM-zXi" version="15.5.6" type="github">
  <diagram name="Cliente" id="0783ab3e-0a74-02c8-0abd-f7b4e66b4bec">
    <mxGraphModel dx="1988" dy="1270" grid="1" gridSize="10" guides="1" tooltips="1" connect="1" arrows="1" fold="1" page="1" pageScale="1" pageWidth="1169" pageHeight="827" math="0" shadow="0">
      <root>
        <mxCell id="0" />
        <mxCell id="1" parent="0" />
        <mxCell id="LE1P0ZQWoaHicoNtDAZf-1" value=" " style="swimlane;childLayout=stackLayout;resizeParent=1;resizeParentMax=0;startSize=20;horizontal=0;horizontalStack=1;rounded=0;sketch=0;swimlaneLine=0;strokeOpacity=100;separatorColor=none;" parent="1" vertex="1">
          <mxGeometry x="-1120" y="-20" width="2680" height="1150" as="geometry" />
        </mxCell>
        <mxCell id="LE1P0ZQWoaHicoNtDAZf-23" value="SplashScreen" style="swimlane;startSize=20;rounded=0;sketch=0;" parent="LE1P0ZQWoaHicoNtDAZf-1" vertex="1">
          <mxGeometry x="20" width="190" height="1150" as="geometry" />
        </mxCell>
        <mxCell id="xOhRouxDfGiZBzLTzBQK-120" value="&lt;div&gt;&lt;span style=&quot;&quot;&gt;Tela de &lt;br&gt;&lt;/span&gt;&lt;/div&gt;&lt;div&gt;&lt;span style=&quot;&quot;&gt;carregamento&lt;/span&gt;&lt;/div&gt;" style="shape=hexagon;perimeter=hexagonPerimeter2;whiteSpace=wrap;html=1;fixedSize=1;rounded=0;labelBackgroundColor=none;labelBorderColor=none;sketch=0;align=center;fillColor=#cce5ff;strokeColor=#36393d;" parent="LE1P0ZQWoaHicoNtDAZf-23" vertex="1">
          <mxGeometry x="20" y="80" width="120" height="40" as="geometry" />
        </mxCell>
        <mxCell id="LE1P0ZQWoaHicoNtDAZf-2" value="Login" style="swimlane;startSize=20;rounded=0;sketch=0;" parent="LE1P0ZQWoaHicoNtDAZf-1" vertex="1">
          <mxGeometry x="210" width="1170" height="1150" as="geometry" />
        </mxCell>
        <mxCell id="gIbWxe7YwDXyPc4GKkxw-24" style="edgeStyle=orthogonalEdgeStyle;rounded=0;orthogonalLoop=1;jettySize=auto;html=1;endArrow=block;endFill=0;strokeWidth=2;endSize=10;startSize=10;" edge="1" parent="LE1P0ZQWoaHicoNtDAZf-2" source="LE1P0ZQWoaHicoNtDAZf-86" target="xOhRouxDfGiZBzLTzBQK-152">
          <mxGeometry relative="1" as="geometry" />
        </mxCell>
        <mxCell id="gIbWxe7YwDXyPc4GKkxw-25" style="edgeStyle=orthogonalEdgeStyle;rounded=0;orthogonalLoop=1;jettySize=auto;html=1;endArrow=block;endFill=0;startSize=10;endSize=10;strokeWidth=2;" edge="1" parent="LE1P0ZQWoaHicoNtDAZf-2" source="LE1P0ZQWoaHicoNtDAZf-86" target="xOhRouxDfGiZBzLTzBQK-245">
          <mxGeometry relative="1" as="geometry" />
        </mxCell>
        <mxCell id="gIbWxe7YwDXyPc4GKkxw-27" style="edgeStyle=orthogonalEdgeStyle;rounded=0;orthogonalLoop=1;jettySize=auto;html=1;endArrow=block;endFill=0;startSize=10;endSize=10;strokeWidth=2;" edge="1" parent="LE1P0ZQWoaHicoNtDAZf-2" source="LE1P0ZQWoaHicoNtDAZf-86" target="xOhRouxDfGiZBzLTzBQK-247">
          <mxGeometry relative="1" as="geometry" />
        </mxCell>
        <mxCell id="LE1P0ZQWoaHicoNtDAZf-86" value="" style="shape=table;html=1;whiteSpace=wrap;startSize=0;container=1;collapsible=0;childLayout=tableLayout;columnLines=1;rowLines=1;rounded=0;sketch=0;align=left;labelBorderColor=#000000;fixedRows=0;autosize=1;resizeHeight=1;resizeWidth=1;" parent="LE1P0ZQWoaHicoNtDAZf-2" vertex="1">
          <mxGeometry x="280" y="130" width="350" height="519.0000000000005" as="geometry" />
        </mxCell>
        <mxCell id="LE1P0ZQWoaHicoNtDAZf-87" value="" style="shape=partialRectangle;html=1;whiteSpace=wrap;collapsible=0;dropTarget=0;pointerEvents=0;top=0;left=0;bottom=0;right=0;points=[[0,0.5],[1,0.5]];portConstraint=eastwest;rounded=0;sketch=0;align=left;" parent="LE1P0ZQWoaHicoNtDAZf-86" vertex="1">
          <mxGeometry width="350" height="19" as="geometry" />
        </mxCell>
        <mxCell id="LE1P0ZQWoaHicoNtDAZf-88" value="Dado informado" style="shape=partialRectangle;html=1;whiteSpace=wrap;connectable=0;top=0;left=0;bottom=1;right=1;overflow=hidden;pointerEvents=1;rounded=0;sketch=0;align=center;fontStyle=1" parent="LE1P0ZQWoaHicoNtDAZf-87" vertex="1">
          <mxGeometry width="140" height="19" as="geometry">
            <mxRectangle width="140" height="19" as="alternateBounds" />
          </mxGeometry>
        </mxCell>
        <mxCell id="LE1P0ZQWoaHicoNtDAZf-89" value="Formato do dado&lt;span style=&quot;white-space: pre&quot;&gt;&lt;/span&gt;" style="shape=partialRectangle;html=1;whiteSpace=wrap;connectable=0;top=0;left=0;bottom=1;right=0;overflow=hidden;pointerEvents=1;rounded=0;sketch=0;align=center;fontStyle=1" parent="LE1P0ZQWoaHicoNtDAZf-87" vertex="1">
          <mxGeometry x="140" width="210" height="19" as="geometry">
            <mxRectangle width="210" height="19" as="alternateBounds" />
          </mxGeometry>
        </mxCell>
        <mxCell id="LE1P0ZQWoaHicoNtDAZf-91" value="" style="shape=partialRectangle;html=1;whiteSpace=wrap;collapsible=0;dropTarget=0;pointerEvents=0;top=0;left=0;bottom=0;right=0;points=[[0,0.5],[1,0.5]];portConstraint=eastwest;rounded=0;sketch=0;align=left;" parent="LE1P0ZQWoaHicoNtDAZf-86" vertex="1">
          <mxGeometry y="19" width="350" height="21" as="geometry" />
        </mxCell>
        <mxCell id="LE1P0ZQWoaHicoNtDAZf-92" value="Nome Fantasia" style="shape=partialRectangle;html=1;whiteSpace=wrap;connectable=0;top=0;left=0;bottom=1;right=1;overflow=hidden;pointerEvents=1;rounded=0;labelBackgroundColor=none;sketch=0;align=left;" parent="LE1P0ZQWoaHicoNtDAZf-91" vertex="1">
          <mxGeometry width="140" height="21" as="geometry">
            <mxRectangle width="140" height="21" as="alternateBounds" />
          </mxGeometry>
        </mxCell>
        <mxCell id="LE1P0ZQWoaHicoNtDAZf-93" value="Texto" style="shape=partialRectangle;html=1;whiteSpace=wrap;connectable=0;top=0;left=0;bottom=1;right=0;overflow=hidden;pointerEvents=1;rounded=0;labelBackgroundColor=none;sketch=0;align=left;" parent="LE1P0ZQWoaHicoNtDAZf-91" vertex="1">
          <mxGeometry x="140" width="210" height="21" as="geometry">
            <mxRectangle width="210" height="21" as="alternateBounds" />
          </mxGeometry>
        </mxCell>
        <mxCell id="LE1P0ZQWoaHicoNtDAZf-95" value="" style="shape=partialRectangle;html=1;whiteSpace=wrap;collapsible=0;dropTarget=0;pointerEvents=0;top=0;left=0;bottom=0;right=0;points=[[0,0.5],[1,0.5]];portConstraint=eastwest;rounded=0;sketch=0;align=left;" parent="LE1P0ZQWoaHicoNtDAZf-86" vertex="1">
          <mxGeometry y="40" width="350" height="19" as="geometry" />
        </mxCell>
        <mxCell id="LE1P0ZQWoaHicoNtDAZf-96" value="Nome de Registro" style="shape=partialRectangle;html=1;whiteSpace=wrap;connectable=0;top=0;left=0;bottom=1;right=1;overflow=hidden;pointerEvents=1;rounded=0;labelBackgroundColor=none;sketch=0;align=left;" parent="LE1P0ZQWoaHicoNtDAZf-95" vertex="1">
          <mxGeometry width="140" height="19" as="geometry">
            <mxRectangle width="140" height="19" as="alternateBounds" />
          </mxGeometry>
        </mxCell>
        <mxCell id="LE1P0ZQWoaHicoNtDAZf-97" value="Texto" style="shape=partialRectangle;html=1;whiteSpace=wrap;connectable=0;top=0;left=0;bottom=1;right=0;overflow=visible;pointerEvents=1;rounded=0;labelBackgroundColor=none;sketch=0;align=left;resizeHeight=1;" parent="LE1P0ZQWoaHicoNtDAZf-95" vertex="1">
          <mxGeometry x="140" width="210" height="19" as="geometry">
            <mxRectangle width="210" height="19" as="alternateBounds" />
          </mxGeometry>
        </mxCell>
        <mxCell id="gIbWxe7YwDXyPc4GKkxw-4" style="shape=partialRectangle;html=1;whiteSpace=wrap;collapsible=0;dropTarget=0;pointerEvents=0;top=0;left=0;bottom=0;right=0;points=[[0,0.5],[1,0.5]];portConstraint=eastwest;rounded=0;sketch=0;align=left;" vertex="1" parent="LE1P0ZQWoaHicoNtDAZf-86">
          <mxGeometry y="59" width="350" height="20" as="geometry" />
        </mxCell>
        <mxCell id="gIbWxe7YwDXyPc4GKkxw-5" value="Razão Social" style="shape=partialRectangle;html=1;whiteSpace=wrap;connectable=0;top=0;left=0;bottom=1;right=1;overflow=hidden;pointerEvents=1;rounded=0;labelBackgroundColor=none;sketch=0;align=left;" vertex="1" parent="gIbWxe7YwDXyPc4GKkxw-4">
          <mxGeometry width="140" height="20" as="geometry">
            <mxRectangle width="140" height="20" as="alternateBounds" />
          </mxGeometry>
        </mxCell>
        <mxCell id="gIbWxe7YwDXyPc4GKkxw-6" value="Texto" style="shape=partialRectangle;html=1;whiteSpace=wrap;connectable=0;top=0;left=0;bottom=1;right=0;overflow=visible;pointerEvents=1;rounded=0;labelBackgroundColor=none;sketch=0;align=left;resizeHeight=1;" vertex="1" parent="gIbWxe7YwDXyPc4GKkxw-4">
          <mxGeometry x="140" width="210" height="20" as="geometry">
            <mxRectangle width="210" height="20" as="alternateBounds" />
          </mxGeometry>
        </mxCell>
        <mxCell id="LE1P0ZQWoaHicoNtDAZf-105" style="shape=partialRectangle;html=1;whiteSpace=wrap;collapsible=0;dropTarget=0;pointerEvents=0;top=0;left=0;bottom=0;right=0;points=[[0,0.5],[1,0.5]];portConstraint=eastwest;rounded=0;sketch=0;align=left;" parent="LE1P0ZQWoaHicoNtDAZf-86" vertex="1">
          <mxGeometry y="79" width="350" height="20" as="geometry" />
        </mxCell>
        <mxCell id="LE1P0ZQWoaHicoNtDAZf-106" value="Email" style="shape=partialRectangle;html=1;whiteSpace=wrap;connectable=0;top=0;left=0;bottom=1;right=1;overflow=hidden;pointerEvents=1;rounded=0;labelBackgroundColor=none;sketch=0;align=left;" parent="LE1P0ZQWoaHicoNtDAZf-105" vertex="1">
          <mxGeometry width="140" height="20" as="geometry">
            <mxRectangle width="140" height="20" as="alternateBounds" />
          </mxGeometry>
        </mxCell>
        <mxCell id="LE1P0ZQWoaHicoNtDAZf-107" value="AZaz09-_.@az.az.az" style="shape=partialRectangle;html=1;whiteSpace=wrap;connectable=0;top=0;left=0;bottom=1;right=0;overflow=hidden;pointerEvents=1;rounded=0;labelBackgroundColor=none;sketch=0;align=left;" parent="LE1P0ZQWoaHicoNtDAZf-105" vertex="1">
          <mxGeometry x="140" width="210" height="20" as="geometry">
            <mxRectangle width="210" height="20" as="alternateBounds" />
          </mxGeometry>
        </mxCell>
        <mxCell id="LE1P0ZQWoaHicoNtDAZf-102" style="shape=partialRectangle;html=1;whiteSpace=wrap;collapsible=0;dropTarget=0;pointerEvents=0;top=0;left=0;bottom=0;right=0;points=[[0,0.5],[1,0.5]];portConstraint=eastwest;rounded=0;sketch=0;align=left;" parent="LE1P0ZQWoaHicoNtDAZf-86" vertex="1">
          <mxGeometry y="99" width="350" height="24" as="geometry" />
        </mxCell>
        <mxCell id="LE1P0ZQWoaHicoNtDAZf-103" value="Telefone" style="shape=partialRectangle;html=1;whiteSpace=wrap;connectable=0;top=0;left=0;bottom=1;right=1;overflow=hidden;pointerEvents=1;rounded=0;labelBackgroundColor=none;sketch=0;align=left;" parent="LE1P0ZQWoaHicoNtDAZf-102" vertex="1">
          <mxGeometry width="140" height="24" as="geometry">
            <mxRectangle width="140" height="24" as="alternateBounds" />
          </mxGeometry>
        </mxCell>
        <mxCell id="LE1P0ZQWoaHicoNtDAZf-104" value="(00) 9 0000 0000" style="shape=partialRectangle;html=1;whiteSpace=wrap;connectable=0;top=0;left=0;bottom=1;right=0;overflow=hidden;pointerEvents=1;rounded=0;labelBackgroundColor=none;sketch=0;align=left;" parent="LE1P0ZQWoaHicoNtDAZf-102" vertex="1">
          <mxGeometry x="140" width="210" height="24" as="geometry">
            <mxRectangle width="210" height="24" as="alternateBounds" />
          </mxGeometry>
        </mxCell>
        <mxCell id="xOhRouxDfGiZBzLTzBQK-4" style="shape=partialRectangle;html=1;whiteSpace=wrap;collapsible=0;dropTarget=0;pointerEvents=0;top=0;left=0;bottom=0;right=0;points=[[0,0.5],[1,0.5]];portConstraint=eastwest;rounded=0;sketch=0;align=left;" parent="LE1P0ZQWoaHicoNtDAZf-86" vertex="1">
          <mxGeometry y="123" width="350" height="23" as="geometry" />
        </mxCell>
        <mxCell id="xOhRouxDfGiZBzLTzBQK-5" value="Telefone 2 (opcional)" style="shape=partialRectangle;html=1;whiteSpace=wrap;connectable=0;top=0;left=0;bottom=1;right=1;overflow=hidden;pointerEvents=1;rounded=0;labelBackgroundColor=none;sketch=0;align=left;" parent="xOhRouxDfGiZBzLTzBQK-4" vertex="1">
          <mxGeometry width="140" height="23" as="geometry">
            <mxRectangle width="140" height="23" as="alternateBounds" />
          </mxGeometry>
        </mxCell>
        <mxCell id="xOhRouxDfGiZBzLTzBQK-6" value="(00) 9 0000 0000" style="shape=partialRectangle;html=1;whiteSpace=wrap;connectable=0;top=0;left=0;bottom=1;right=0;overflow=hidden;pointerEvents=1;rounded=0;labelBackgroundColor=none;sketch=0;align=left;" parent="xOhRouxDfGiZBzLTzBQK-4" vertex="1">
          <mxGeometry x="140" width="210" height="23" as="geometry">
            <mxRectangle width="210" height="23" as="alternateBounds" />
          </mxGeometry>
        </mxCell>
        <mxCell id="xOhRouxDfGiZBzLTzBQK-107" style="shape=partialRectangle;html=1;whiteSpace=wrap;collapsible=0;dropTarget=0;pointerEvents=0;top=0;left=0;bottom=0;right=0;points=[[0,0.5],[1,0.5]];portConstraint=eastwest;rounded=0;sketch=0;align=left;" parent="LE1P0ZQWoaHicoNtDAZf-86" vertex="1">
          <mxGeometry y="146" width="350" height="19" as="geometry" />
        </mxCell>
        <mxCell id="xOhRouxDfGiZBzLTzBQK-108" value="Senha" style="shape=partialRectangle;html=1;whiteSpace=wrap;connectable=0;top=0;left=0;bottom=1;right=1;overflow=hidden;pointerEvents=1;rounded=0;labelBackgroundColor=none;sketch=0;align=left;" parent="xOhRouxDfGiZBzLTzBQK-107" vertex="1">
          <mxGeometry width="140" height="19" as="geometry">
            <mxRectangle width="140" height="19" as="alternateBounds" />
          </mxGeometry>
        </mxCell>
        <mxCell id="xOhRouxDfGiZBzLTzBQK-109" value="Texto, números, caracteres especiais" style="shape=partialRectangle;html=1;whiteSpace=wrap;connectable=0;top=0;left=0;bottom=1;right=0;overflow=hidden;pointerEvents=1;rounded=0;labelBackgroundColor=none;sketch=0;align=left;" parent="xOhRouxDfGiZBzLTzBQK-107" vertex="1">
          <mxGeometry x="140" width="210" height="19" as="geometry">
            <mxRectangle width="210" height="19" as="alternateBounds" />
          </mxGeometry>
        </mxCell>
        <mxCell id="LE1P0ZQWoaHicoNtDAZf-99" style="shape=partialRectangle;html=1;whiteSpace=wrap;collapsible=0;dropTarget=0;pointerEvents=0;top=0;left=0;bottom=0;right=0;points=[[0,0.5],[1,0.5]];portConstraint=eastwest;rounded=0;sketch=0;align=left;" parent="LE1P0ZQWoaHicoNtDAZf-86" vertex="1">
          <mxGeometry y="165" width="350" height="23" as="geometry" />
        </mxCell>
        <mxCell id="LE1P0ZQWoaHicoNtDAZf-100" value="Endereço" style="shape=partialRectangle;html=1;whiteSpace=wrap;connectable=0;top=0;left=0;bottom=1;right=1;overflow=hidden;pointerEvents=1;rounded=0;labelBackgroundColor=none;sketch=0;align=center;labelBorderColor=none;fontStyle=1;" parent="LE1P0ZQWoaHicoNtDAZf-99" vertex="1">
          <mxGeometry width="140" height="23" as="geometry">
            <mxRectangle width="140" height="23" as="alternateBounds" />
          </mxGeometry>
        </mxCell>
        <mxCell id="LE1P0ZQWoaHicoNtDAZf-101" value="&lt;div align=&quot;center&quot;&gt;&lt;b&gt;Formato do dado&lt;/b&gt;&lt;br&gt;&lt;/div&gt;" style="shape=partialRectangle;html=1;whiteSpace=wrap;connectable=0;top=0;left=0;bottom=1;right=0;overflow=hidden;pointerEvents=1;rounded=0;labelBackgroundColor=none;sketch=0;align=center;" parent="LE1P0ZQWoaHicoNtDAZf-99" vertex="1">
          <mxGeometry x="140" width="210" height="23" as="geometry">
            <mxRectangle width="210" height="23" as="alternateBounds" />
          </mxGeometry>
        </mxCell>
        <mxCell id="LE1P0ZQWoaHicoNtDAZf-145" style="shape=partialRectangle;html=1;whiteSpace=wrap;collapsible=0;dropTarget=0;pointerEvents=0;top=0;left=0;bottom=0;right=0;points=[[0,0.5],[1,0.5]];portConstraint=eastwest;rounded=0;sketch=0;align=left;" parent="LE1P0ZQWoaHicoNtDAZf-86" vertex="1">
          <mxGeometry y="188" width="350" height="22" as="geometry" />
        </mxCell>
        <mxCell id="LE1P0ZQWoaHicoNtDAZf-146" value="CEP" style="shape=partialRectangle;html=1;whiteSpace=wrap;connectable=0;top=0;left=0;bottom=1;right=1;overflow=hidden;pointerEvents=1;rounded=0;labelBackgroundColor=none;sketch=0;align=left;labelBorderColor=none;fontStyle=0;" parent="LE1P0ZQWoaHicoNtDAZf-145" vertex="1">
          <mxGeometry width="140" height="22" as="geometry">
            <mxRectangle width="140" height="22" as="alternateBounds" />
          </mxGeometry>
        </mxCell>
        <mxCell id="LE1P0ZQWoaHicoNtDAZf-147" value="00000-000" style="shape=partialRectangle;html=1;whiteSpace=wrap;connectable=0;top=0;left=0;bottom=1;right=0;overflow=hidden;pointerEvents=1;rounded=0;labelBackgroundColor=none;sketch=0;align=left;" parent="LE1P0ZQWoaHicoNtDAZf-145" vertex="1">
          <mxGeometry x="140" width="210" height="22" as="geometry">
            <mxRectangle width="210" height="22" as="alternateBounds" />
          </mxGeometry>
        </mxCell>
        <mxCell id="LE1P0ZQWoaHicoNtDAZf-142" style="shape=partialRectangle;html=1;whiteSpace=wrap;collapsible=0;dropTarget=0;pointerEvents=0;top=0;left=0;bottom=0;right=0;points=[[0,0.5],[1,0.5]];portConstraint=eastwest;rounded=0;sketch=0;align=left;" parent="LE1P0ZQWoaHicoNtDAZf-86" vertex="1">
          <mxGeometry y="210" width="350" height="20" as="geometry" />
        </mxCell>
        <mxCell id="LE1P0ZQWoaHicoNtDAZf-143" value="Rua" style="shape=partialRectangle;html=1;whiteSpace=wrap;connectable=0;top=0;left=0;bottom=1;right=1;overflow=hidden;pointerEvents=1;rounded=0;labelBackgroundColor=none;sketch=0;align=left;labelBorderColor=none;fontStyle=0;" parent="LE1P0ZQWoaHicoNtDAZf-142" vertex="1">
          <mxGeometry width="140" height="20" as="geometry">
            <mxRectangle width="140" height="20" as="alternateBounds" />
          </mxGeometry>
        </mxCell>
        <mxCell id="LE1P0ZQWoaHicoNtDAZf-144" value="Texto" style="shape=partialRectangle;html=1;whiteSpace=wrap;connectable=0;top=0;left=0;bottom=1;right=0;overflow=hidden;pointerEvents=1;rounded=0;labelBackgroundColor=none;sketch=0;align=left;" parent="LE1P0ZQWoaHicoNtDAZf-142" vertex="1">
          <mxGeometry x="140" width="210" height="20" as="geometry">
            <mxRectangle width="210" height="20" as="alternateBounds" />
          </mxGeometry>
        </mxCell>
        <mxCell id="LE1P0ZQWoaHicoNtDAZf-139" style="shape=partialRectangle;html=1;whiteSpace=wrap;collapsible=0;dropTarget=0;pointerEvents=0;top=0;left=0;bottom=0;right=0;points=[[0,0.5],[1,0.5]];portConstraint=eastwest;rounded=0;sketch=0;align=left;" parent="LE1P0ZQWoaHicoNtDAZf-86" vertex="1">
          <mxGeometry y="230" width="350" height="23" as="geometry" />
        </mxCell>
        <mxCell id="LE1P0ZQWoaHicoNtDAZf-140" value="Número&lt;span style=&quot;white-space: pre&quot;&gt;&lt;/span&gt;&lt;span style=&quot;white-space: pre&quot;&gt;&lt;/span&gt;&lt;span style=&quot;white-space: pre&quot;&gt;&lt;/span&gt;" style="shape=partialRectangle;html=1;whiteSpace=wrap;connectable=0;top=0;left=0;bottom=1;right=1;overflow=hidden;pointerEvents=1;rounded=0;labelBackgroundColor=none;sketch=0;align=left;labelBorderColor=none;fontStyle=0;" parent="LE1P0ZQWoaHicoNtDAZf-139" vertex="1">
          <mxGeometry width="140" height="23" as="geometry">
            <mxRectangle width="140" height="23" as="alternateBounds" />
          </mxGeometry>
        </mxCell>
        <mxCell id="LE1P0ZQWoaHicoNtDAZf-141" value="Apenas números" style="shape=partialRectangle;html=1;whiteSpace=wrap;connectable=0;top=0;left=0;bottom=1;right=0;overflow=hidden;pointerEvents=1;rounded=0;labelBackgroundColor=none;sketch=0;align=left;" parent="LE1P0ZQWoaHicoNtDAZf-139" vertex="1">
          <mxGeometry x="140" width="210" height="23" as="geometry">
            <mxRectangle width="210" height="23" as="alternateBounds" />
          </mxGeometry>
        </mxCell>
        <mxCell id="LE1P0ZQWoaHicoNtDAZf-136" style="shape=partialRectangle;html=1;whiteSpace=wrap;collapsible=0;dropTarget=0;pointerEvents=0;top=0;left=0;bottom=0;right=0;points=[[0,0.5],[1,0.5]];portConstraint=eastwest;rounded=0;sketch=0;align=left;" parent="LE1P0ZQWoaHicoNtDAZf-86" vertex="1">
          <mxGeometry y="253" width="350" height="19" as="geometry" />
        </mxCell>
        <mxCell id="LE1P0ZQWoaHicoNtDAZf-137" value="Complemento" style="shape=partialRectangle;html=1;whiteSpace=wrap;connectable=0;top=0;left=0;bottom=1;right=1;overflow=hidden;pointerEvents=1;rounded=0;labelBackgroundColor=none;sketch=0;align=left;labelBorderColor=none;fontStyle=0;" parent="LE1P0ZQWoaHicoNtDAZf-136" vertex="1">
          <mxGeometry width="140" height="19" as="geometry">
            <mxRectangle width="140" height="19" as="alternateBounds" />
          </mxGeometry>
        </mxCell>
        <mxCell id="LE1P0ZQWoaHicoNtDAZf-138" value="Texto, números, pontuação" style="shape=partialRectangle;html=1;whiteSpace=wrap;connectable=0;top=0;left=0;bottom=1;right=0;overflow=hidden;pointerEvents=1;rounded=0;labelBackgroundColor=none;sketch=0;align=left;" parent="LE1P0ZQWoaHicoNtDAZf-136" vertex="1">
          <mxGeometry x="140" width="210" height="19" as="geometry">
            <mxRectangle width="210" height="19" as="alternateBounds" />
          </mxGeometry>
        </mxCell>
        <mxCell id="LE1P0ZQWoaHicoNtDAZf-148" style="shape=partialRectangle;html=1;whiteSpace=wrap;collapsible=0;dropTarget=0;pointerEvents=0;top=0;left=0;bottom=0;right=0;points=[[0,0.5],[1,0.5]];portConstraint=eastwest;rounded=0;sketch=0;align=left;" parent="LE1P0ZQWoaHicoNtDAZf-86" vertex="1">
          <mxGeometry y="272" width="350" height="25" as="geometry" />
        </mxCell>
        <mxCell id="LE1P0ZQWoaHicoNtDAZf-149" value="Bairro&lt;span style=&quot;white-space: pre&quot;&gt;&lt;/span&gt;&lt;span style=&quot;white-space: pre&quot;&gt;&lt;/span&gt;" style="shape=partialRectangle;html=1;whiteSpace=wrap;connectable=0;top=0;left=0;bottom=1;right=1;overflow=hidden;pointerEvents=1;rounded=0;labelBackgroundColor=none;sketch=0;align=left;labelBorderColor=none;fontStyle=0;" parent="LE1P0ZQWoaHicoNtDAZf-148" vertex="1">
          <mxGeometry width="140" height="25" as="geometry">
            <mxRectangle width="140" height="25" as="alternateBounds" />
          </mxGeometry>
        </mxCell>
        <mxCell id="LE1P0ZQWoaHicoNtDAZf-150" value="Texto" style="shape=partialRectangle;html=1;whiteSpace=wrap;connectable=0;top=0;left=0;bottom=1;right=0;overflow=hidden;pointerEvents=1;rounded=0;labelBackgroundColor=none;sketch=0;align=left;" parent="LE1P0ZQWoaHicoNtDAZf-148" vertex="1">
          <mxGeometry x="140" width="210" height="25" as="geometry">
            <mxRectangle width="210" height="25" as="alternateBounds" />
          </mxGeometry>
        </mxCell>
        <mxCell id="xOhRouxDfGiZBzLTzBQK-1" style="shape=partialRectangle;html=1;whiteSpace=wrap;collapsible=0;dropTarget=0;pointerEvents=0;top=0;left=0;bottom=0;right=0;points=[[0,0.5],[1,0.5]];portConstraint=eastwest;rounded=0;sketch=0;align=left;" parent="LE1P0ZQWoaHicoNtDAZf-86" vertex="1">
          <mxGeometry y="297" width="350" height="23" as="geometry" />
        </mxCell>
        <mxCell id="xOhRouxDfGiZBzLTzBQK-2" value="Cidade" style="shape=partialRectangle;html=1;whiteSpace=wrap;connectable=0;top=0;left=0;bottom=1;right=1;overflow=hidden;pointerEvents=1;rounded=0;labelBackgroundColor=none;sketch=0;align=left;labelBorderColor=none;fontStyle=0;" parent="xOhRouxDfGiZBzLTzBQK-1" vertex="1">
          <mxGeometry width="140" height="23" as="geometry">
            <mxRectangle width="140" height="23" as="alternateBounds" />
          </mxGeometry>
        </mxCell>
        <mxCell id="xOhRouxDfGiZBzLTzBQK-3" value="Texto" style="shape=partialRectangle;html=1;whiteSpace=wrap;connectable=0;top=0;left=0;bottom=1;right=0;overflow=hidden;pointerEvents=1;rounded=0;labelBackgroundColor=none;sketch=0;align=left;" parent="xOhRouxDfGiZBzLTzBQK-1" vertex="1">
          <mxGeometry x="140" width="210" height="23" as="geometry">
            <mxRectangle width="210" height="23" as="alternateBounds" />
          </mxGeometry>
        </mxCell>
        <mxCell id="xOhRouxDfGiZBzLTzBQK-8" style="shape=partialRectangle;html=1;whiteSpace=wrap;collapsible=0;dropTarget=0;pointerEvents=0;top=0;left=0;bottom=0;right=0;points=[[0,0.5],[1,0.5]];portConstraint=eastwest;rounded=0;sketch=0;align=left;" parent="LE1P0ZQWoaHicoNtDAZf-86" vertex="1">
          <mxGeometry y="320" width="350" height="21" as="geometry" />
        </mxCell>
        <mxCell id="xOhRouxDfGiZBzLTzBQK-9" value="Estado" style="shape=partialRectangle;html=1;whiteSpace=wrap;connectable=0;top=0;left=0;bottom=1;right=1;overflow=hidden;pointerEvents=1;rounded=0;labelBackgroundColor=none;sketch=0;align=left;labelBorderColor=none;fontStyle=0;" parent="xOhRouxDfGiZBzLTzBQK-8" vertex="1">
          <mxGeometry width="140" height="21" as="geometry">
            <mxRectangle width="140" height="21" as="alternateBounds" />
          </mxGeometry>
        </mxCell>
        <mxCell id="xOhRouxDfGiZBzLTzBQK-10" value="Texto" style="shape=partialRectangle;html=1;whiteSpace=wrap;connectable=0;top=0;left=0;bottom=1;right=0;overflow=hidden;pointerEvents=1;rounded=0;labelBackgroundColor=none;sketch=0;align=left;" parent="xOhRouxDfGiZBzLTzBQK-8" vertex="1">
          <mxGeometry x="140" width="210" height="21" as="geometry">
            <mxRectangle width="210" height="21" as="alternateBounds" />
          </mxGeometry>
        </mxCell>
        <mxCell id="gIbWxe7YwDXyPc4GKkxw-10" style="shape=partialRectangle;html=1;whiteSpace=wrap;collapsible=0;dropTarget=0;pointerEvents=0;top=0;left=0;bottom=0;right=0;points=[[0,0.5],[1,0.5]];portConstraint=eastwest;rounded=0;sketch=0;align=left;" vertex="1" parent="LE1P0ZQWoaHicoNtDAZf-86">
          <mxGeometry y="341" width="350" height="22" as="geometry" />
        </mxCell>
        <mxCell id="gIbWxe7YwDXyPc4GKkxw-11" value="&lt;div align=&quot;center&quot;&gt;&lt;b&gt;Área de atuação&lt;/b&gt;&lt;br&gt;&lt;/div&gt;" style="shape=partialRectangle;html=1;whiteSpace=wrap;connectable=0;top=0;left=0;bottom=1;right=1;overflow=hidden;pointerEvents=1;rounded=0;labelBackgroundColor=none;sketch=0;align=center;labelBorderColor=none;fontStyle=0;" vertex="1" parent="gIbWxe7YwDXyPc4GKkxw-10">
          <mxGeometry width="140" height="22" as="geometry">
            <mxRectangle width="140" height="22" as="alternateBounds" />
          </mxGeometry>
        </mxCell>
        <mxCell id="gIbWxe7YwDXyPc4GKkxw-12" value="&lt;div&gt;&lt;b&gt;Formato do dado&lt;/b&gt;&lt;br&gt;&lt;/div&gt;" style="shape=partialRectangle;html=1;whiteSpace=wrap;connectable=0;top=0;left=0;bottom=1;right=0;overflow=hidden;pointerEvents=1;rounded=0;labelBackgroundColor=none;sketch=0;align=center;" vertex="1" parent="gIbWxe7YwDXyPc4GKkxw-10">
          <mxGeometry x="140" width="210" height="22" as="geometry">
            <mxRectangle width="210" height="22" as="alternateBounds" />
          </mxGeometry>
        </mxCell>
        <mxCell id="gIbWxe7YwDXyPc4GKkxw-14" style="shape=partialRectangle;html=1;whiteSpace=wrap;collapsible=0;dropTarget=0;pointerEvents=0;top=0;left=0;bottom=0;right=0;points=[[0,0.5],[1,0.5]];portConstraint=eastwest;rounded=0;sketch=0;align=left;" vertex="1" parent="LE1P0ZQWoaHicoNtDAZf-86">
          <mxGeometry y="363" width="350" height="76" as="geometry" />
        </mxCell>
        <mxCell id="gIbWxe7YwDXyPc4GKkxw-15" value="Tipos de Equipamentos" style="shape=partialRectangle;html=1;whiteSpace=wrap;connectable=0;top=0;left=0;bottom=1;right=1;overflow=hidden;pointerEvents=1;rounded=0;labelBackgroundColor=none;sketch=0;align=left;labelBorderColor=none;fontStyle=0;" vertex="1" parent="gIbWxe7YwDXyPc4GKkxw-14">
          <mxGeometry width="140" height="76" as="geometry">
            <mxRectangle width="140" height="76" as="alternateBounds" />
          </mxGeometry>
        </mxCell>
        <mxCell id="gIbWxe7YwDXyPc4GKkxw-16" value="&lt;div&gt;Seleção de itens:&lt;/div&gt;&lt;div&gt;&lt;span style=&quot;white-space: pre&quot;&gt;	&lt;/span&gt;1. Smartphones&lt;/div&gt;&lt;div&gt;&lt;span style=&quot;white-space: pre&quot;&gt;	&lt;/span&gt;2. Smartwatch&lt;/div&gt;&lt;div&gt;&lt;span style=&quot;white-space: pre&quot;&gt;	&lt;/span&gt;3. TVs&lt;/div&gt;&lt;div&gt;&lt;span style=&quot;white-space: pre&quot;&gt;	&lt;/span&gt;4. Microondas&lt;br&gt;&lt;/div&gt;" style="shape=partialRectangle;html=1;whiteSpace=wrap;connectable=0;top=0;left=0;bottom=1;right=0;overflow=hidden;pointerEvents=1;rounded=0;labelBackgroundColor=none;sketch=0;align=left;" vertex="1" parent="gIbWxe7YwDXyPc4GKkxw-14">
          <mxGeometry x="140" width="210" height="76" as="geometry">
            <mxRectangle width="210" height="76" as="alternateBounds" />
          </mxGeometry>
        </mxCell>
        <mxCell id="gIbWxe7YwDXyPc4GKkxw-17" style="shape=partialRectangle;html=1;whiteSpace=wrap;collapsible=0;dropTarget=0;pointerEvents=0;top=0;left=0;bottom=0;right=0;points=[[0,0.5],[1,0.5]];portConstraint=eastwest;rounded=0;sketch=0;align=left;" vertex="1" parent="LE1P0ZQWoaHicoNtDAZf-86">
          <mxGeometry y="439" width="350" height="40" as="geometry" />
        </mxCell>
        <mxCell id="gIbWxe7YwDXyPc4GKkxw-18" value="Fabricantes" style="shape=partialRectangle;html=1;whiteSpace=wrap;connectable=0;top=0;left=0;bottom=1;right=1;overflow=hidden;pointerEvents=1;rounded=0;labelBackgroundColor=none;sketch=0;align=left;labelBorderColor=none;fontStyle=0;" vertex="1" parent="gIbWxe7YwDXyPc4GKkxw-17">
          <mxGeometry width="140" height="40" as="geometry">
            <mxRectangle width="140" height="40" as="alternateBounds" />
          </mxGeometry>
        </mxCell>
        <mxCell id="gIbWxe7YwDXyPc4GKkxw-19" value="&lt;div&gt;Seleção de itens:&lt;/div&gt;&lt;div&gt;&lt;span style=&quot;white-space: pre&quot;&gt;	&lt;/span&gt;1. Lista de fabricantes&lt;br&gt;&lt;/div&gt;" style="shape=partialRectangle;html=1;whiteSpace=wrap;connectable=0;top=0;left=0;bottom=1;right=0;overflow=hidden;pointerEvents=1;rounded=0;labelBackgroundColor=none;sketch=0;align=left;" vertex="1" parent="gIbWxe7YwDXyPc4GKkxw-17">
          <mxGeometry x="140" width="210" height="40" as="geometry">
            <mxRectangle width="210" height="40" as="alternateBounds" />
          </mxGeometry>
        </mxCell>
        <mxCell id="gIbWxe7YwDXyPc4GKkxw-21" style="shape=partialRectangle;html=1;whiteSpace=wrap;collapsible=0;dropTarget=0;pointerEvents=0;top=0;left=0;bottom=0;right=0;points=[[0,0.5],[1,0.5]];portConstraint=eastwest;rounded=0;sketch=0;align=left;" vertex="1" parent="LE1P0ZQWoaHicoNtDAZf-86">
          <mxGeometry y="479" width="350" height="40" as="geometry" />
        </mxCell>
        <mxCell id="gIbWxe7YwDXyPc4GKkxw-22" value="Tipos de Reparos" style="shape=partialRectangle;html=1;whiteSpace=wrap;connectable=0;top=0;left=0;bottom=1;right=1;overflow=hidden;pointerEvents=1;rounded=0;labelBackgroundColor=none;sketch=0;align=left;labelBorderColor=none;fontStyle=0;" vertex="1" parent="gIbWxe7YwDXyPc4GKkxw-21">
          <mxGeometry width="140" height="40" as="geometry">
            <mxRectangle width="140" height="40" as="alternateBounds" />
          </mxGeometry>
        </mxCell>
        <mxCell id="gIbWxe7YwDXyPc4GKkxw-23" value="&lt;div&gt;Seleção de itens:&lt;/div&gt;&lt;div&gt;&lt;span style=&quot;white-space: pre&quot;&gt;	&lt;/span&gt;1. A depender do equipamento&lt;br&gt;&lt;/div&gt;" style="shape=partialRectangle;html=1;whiteSpace=wrap;connectable=0;top=0;left=0;bottom=1;right=0;overflow=hidden;pointerEvents=1;rounded=0;labelBackgroundColor=none;sketch=0;align=left;" vertex="1" parent="gIbWxe7YwDXyPc4GKkxw-21">
          <mxGeometry x="140" width="210" height="40" as="geometry">
            <mxRectangle width="210" height="40" as="alternateBounds" />
          </mxGeometry>
        </mxCell>
        <mxCell id="xOhRouxDfGiZBzLTzBQK-139" style="edgeStyle=orthogonalEdgeStyle;rounded=0;sketch=0;orthogonalLoop=1;jettySize=auto;html=1;entryX=0;entryY=0.5;entryDx=0;entryDy=0;fontColor=#5AA9E6;endArrow=block;endFill=0;startSize=10;strokeWidth=2;endSize=10;" parent="LE1P0ZQWoaHicoNtDAZf-2" source="xOhRouxDfGiZBzLTzBQK-59" target="xOhRouxDfGiZBzLTzBQK-137" edge="1">
          <mxGeometry relative="1" as="geometry" />
        </mxCell>
        <mxCell id="xOhRouxDfGiZBzLTzBQK-59" value="&lt;span style=&quot;background-color: transparent&quot;&gt;Cadastro&lt;/span&gt;" style="shape=hexagon;perimeter=hexagonPerimeter2;whiteSpace=wrap;html=1;fixedSize=1;rounded=0;labelBackgroundColor=none;labelBorderColor=none;sketch=0;align=center;fillColor=#cce5ff;strokeColor=#36393d;" parent="LE1P0ZQWoaHicoNtDAZf-2" vertex="1">
          <mxGeometry x="30" y="80" width="120" height="40" as="geometry" />
        </mxCell>
        <mxCell id="xOhRouxDfGiZBzLTzBQK-147" style="edgeStyle=orthogonalEdgeStyle;rounded=0;sketch=0;orthogonalLoop=1;jettySize=auto;html=1;entryX=0;entryY=0.5;entryDx=0;entryDy=0;fontColor=#5AA9E6;endArrow=block;endFill=0;startSize=10;strokeWidth=2;endSize=10;" parent="LE1P0ZQWoaHicoNtDAZf-2" source="xOhRouxDfGiZBzLTzBQK-62" target="xOhRouxDfGiZBzLTzBQK-145" edge="1">
          <mxGeometry relative="1" as="geometry" />
        </mxCell>
        <mxCell id="xOhRouxDfGiZBzLTzBQK-150" style="edgeStyle=orthogonalEdgeStyle;rounded=0;sketch=0;orthogonalLoop=1;jettySize=auto;html=1;entryX=0;entryY=0.5;entryDx=0;entryDy=0;fontColor=#5AA9E6;endArrow=block;endFill=0;startSize=10;endSize=10;strokeWidth=2;" parent="LE1P0ZQWoaHicoNtDAZf-2" source="xOhRouxDfGiZBzLTzBQK-62" target="xOhRouxDfGiZBzLTzBQK-149" edge="1">
          <mxGeometry relative="1" as="geometry" />
        </mxCell>
        <mxCell id="xOhRouxDfGiZBzLTzBQK-62" value="Login" style="shape=hexagon;perimeter=hexagonPerimeter2;whiteSpace=wrap;html=1;fixedSize=1;rounded=0;labelBackgroundColor=none;labelBorderColor=none;sketch=0;align=center;fillColor=#cce5ff;strokeColor=#36393d;" parent="LE1P0ZQWoaHicoNtDAZf-2" vertex="1">
          <mxGeometry x="29.97" y="690" width="120" height="40" as="geometry" />
        </mxCell>
        <mxCell id="xOhRouxDfGiZBzLTzBQK-272" style="edgeStyle=orthogonalEdgeStyle;rounded=0;sketch=0;orthogonalLoop=1;jettySize=auto;html=1;fontColor=#5AA9E6;endArrow=block;endFill=0;startSize=10;endSize=10;strokeColor=#000000;strokeWidth=2;fillColor=#FFE45E;" parent="LE1P0ZQWoaHicoNtDAZf-2" source="xOhRouxDfGiZBzLTzBQK-64" target="xOhRouxDfGiZBzLTzBQK-268" edge="1">
          <mxGeometry relative="1" as="geometry" />
        </mxCell>
        <mxCell id="xOhRouxDfGiZBzLTzBQK-273" style="edgeStyle=orthogonalEdgeStyle;rounded=0;sketch=0;orthogonalLoop=1;jettySize=auto;html=1;fontColor=#5AA9E6;endArrow=block;endFill=0;startSize=10;endSize=10;strokeColor=#000000;strokeWidth=2;fillColor=#FFE45E;" parent="LE1P0ZQWoaHicoNtDAZf-2" source="xOhRouxDfGiZBzLTzBQK-64" target="xOhRouxDfGiZBzLTzBQK-270" edge="1">
          <mxGeometry relative="1" as="geometry" />
        </mxCell>
        <mxCell id="xOhRouxDfGiZBzLTzBQK-64" value="" style="shape=table;html=1;whiteSpace=wrap;startSize=0;container=1;collapsible=0;childLayout=tableLayout;columnLines=1;rowLines=1;rounded=0;sketch=0;align=left;labelBorderColor=#000000;fixedRows=0;autosize=1;resizeHeight=1;resizeWidth=1;" parent="LE1P0ZQWoaHicoNtDAZf-2" vertex="1">
          <mxGeometry x="279.97" y="740" width="260" height="96.00000000000011" as="geometry" />
        </mxCell>
        <mxCell id="xOhRouxDfGiZBzLTzBQK-65" value="" style="shape=partialRectangle;html=1;whiteSpace=wrap;collapsible=0;dropTarget=0;pointerEvents=0;top=0;left=0;bottom=0;right=0;points=[[0,0.5],[1,0.5]];portConstraint=eastwest;rounded=0;sketch=0;align=left;" parent="xOhRouxDfGiZBzLTzBQK-64" vertex="1">
          <mxGeometry width="260" height="30" as="geometry" />
        </mxCell>
        <mxCell id="xOhRouxDfGiZBzLTzBQK-66" value="Dado informado" style="shape=partialRectangle;html=1;whiteSpace=wrap;connectable=0;top=0;left=0;bottom=1;right=1;overflow=hidden;pointerEvents=1;rounded=0;sketch=0;align=center;fontStyle=1" parent="xOhRouxDfGiZBzLTzBQK-65" vertex="1">
          <mxGeometry width="130" height="30" as="geometry">
            <mxRectangle width="130" height="30" as="alternateBounds" />
          </mxGeometry>
        </mxCell>
        <mxCell id="xOhRouxDfGiZBzLTzBQK-67" value="Formato do dado&lt;span style=&quot;white-space: pre&quot;&gt;&lt;/span&gt;" style="shape=partialRectangle;html=1;whiteSpace=wrap;connectable=0;top=0;left=0;bottom=1;right=0;overflow=hidden;pointerEvents=1;rounded=0;sketch=0;align=center;fontStyle=1" parent="xOhRouxDfGiZBzLTzBQK-65" vertex="1">
          <mxGeometry x="130" width="130" height="30" as="geometry">
            <mxRectangle width="130" height="30" as="alternateBounds" />
          </mxGeometry>
        </mxCell>
        <mxCell id="xOhRouxDfGiZBzLTzBQK-74" style="shape=partialRectangle;html=1;whiteSpace=wrap;collapsible=0;dropTarget=0;pointerEvents=0;top=0;left=0;bottom=0;right=0;points=[[0,0.5],[1,0.5]];portConstraint=eastwest;rounded=0;sketch=0;align=left;" parent="xOhRouxDfGiZBzLTzBQK-64" vertex="1">
          <mxGeometry y="30" width="260" height="20" as="geometry" />
        </mxCell>
        <mxCell id="xOhRouxDfGiZBzLTzBQK-75" value="Email" style="shape=partialRectangle;html=1;whiteSpace=wrap;connectable=0;top=0;left=0;bottom=1;right=1;overflow=hidden;pointerEvents=1;rounded=0;labelBackgroundColor=none;sketch=0;align=left;" parent="xOhRouxDfGiZBzLTzBQK-74" vertex="1">
          <mxGeometry width="130" height="20" as="geometry">
            <mxRectangle width="130" height="20" as="alternateBounds" />
          </mxGeometry>
        </mxCell>
        <mxCell id="xOhRouxDfGiZBzLTzBQK-76" value="AZaz09-_.@az.az.az" style="shape=partialRectangle;html=1;whiteSpace=wrap;connectable=0;top=0;left=0;bottom=1;right=0;overflow=hidden;pointerEvents=1;rounded=0;labelBackgroundColor=none;sketch=0;align=left;" parent="xOhRouxDfGiZBzLTzBQK-74" vertex="1">
          <mxGeometry x="130" width="130" height="20" as="geometry">
            <mxRectangle width="130" height="20" as="alternateBounds" />
          </mxGeometry>
        </mxCell>
        <mxCell id="xOhRouxDfGiZBzLTzBQK-77" style="shape=partialRectangle;html=1;whiteSpace=wrap;collapsible=0;dropTarget=0;pointerEvents=0;top=0;left=0;bottom=0;right=0;points=[[0,0.5],[1,0.5]];portConstraint=eastwest;rounded=0;sketch=0;align=left;" parent="xOhRouxDfGiZBzLTzBQK-64" vertex="1">
          <mxGeometry y="50" width="260" height="46" as="geometry" />
        </mxCell>
        <mxCell id="xOhRouxDfGiZBzLTzBQK-78" value="Senha" style="shape=partialRectangle;html=1;whiteSpace=wrap;connectable=0;top=0;left=0;bottom=1;right=1;overflow=hidden;pointerEvents=1;rounded=0;labelBackgroundColor=none;sketch=0;align=left;" parent="xOhRouxDfGiZBzLTzBQK-77" vertex="1">
          <mxGeometry width="130" height="46" as="geometry">
            <mxRectangle width="130" height="46" as="alternateBounds" />
          </mxGeometry>
        </mxCell>
        <mxCell id="xOhRouxDfGiZBzLTzBQK-79" value="Texto, números, caracteres especiais" style="shape=partialRectangle;html=1;whiteSpace=wrap;connectable=0;top=0;left=0;bottom=1;right=0;overflow=hidden;pointerEvents=1;rounded=0;labelBackgroundColor=none;sketch=0;align=left;" parent="xOhRouxDfGiZBzLTzBQK-77" vertex="1">
          <mxGeometry x="130" width="130" height="46" as="geometry">
            <mxRectangle width="130" height="46" as="alternateBounds" />
          </mxGeometry>
        </mxCell>
        <mxCell id="xOhRouxDfGiZBzLTzBQK-122" value="Caso a assistência ainda não seja cadastrada" style="shape=note;whiteSpace=wrap;html=1;backgroundOutline=1;darkOpacity=0.05;rounded=1;labelBorderColor=none;sketch=0;align=center;size=8;fillColor=#ffff88;strokeColor=#36393d;" parent="LE1P0ZQWoaHicoNtDAZf-2" vertex="1">
          <mxGeometry x="-70" y="130" width="130" height="50" as="geometry" />
        </mxCell>
        <mxCell id="xOhRouxDfGiZBzLTzBQK-137" value="Manual" style="shape=hexagon;perimeter=hexagonPerimeter2;whiteSpace=wrap;html=1;fixedSize=1;rounded=0;sketch=0;size=20;fillColor=#eeeeee;strokeColor=#36393d;" parent="LE1P0ZQWoaHicoNtDAZf-2" vertex="1">
          <mxGeometry x="150" y="130" width="120" height="40" as="geometry" />
        </mxCell>
        <mxCell id="xOhRouxDfGiZBzLTzBQK-144" value="&lt;div&gt;Caso a assistência já&lt;/div&gt;&lt;div&gt;tenha cadastro&lt;/div&gt;" style="shape=note;whiteSpace=wrap;html=1;backgroundOutline=1;darkOpacity=0.05;rounded=1;labelBorderColor=none;sketch=0;align=center;size=8;fillColor=#ffff88;strokeColor=#36393d;" parent="LE1P0ZQWoaHicoNtDAZf-2" vertex="1">
          <mxGeometry x="-90.03" y="650" width="130" height="40" as="geometry" />
        </mxCell>
        <mxCell id="xOhRouxDfGiZBzLTzBQK-145" value="Manual" style="shape=hexagon;perimeter=hexagonPerimeter2;whiteSpace=wrap;html=1;fixedSize=1;rounded=0;sketch=0;size=20;fillColor=#eeeeee;strokeColor=#36393d;" parent="LE1P0ZQWoaHicoNtDAZf-2" vertex="1">
          <mxGeometry x="149.97" y="740" width="120" height="40" as="geometry" />
        </mxCell>
        <mxCell id="xOhRouxDfGiZBzLTzBQK-149" value="Automático" style="shape=hexagon;perimeter=hexagonPerimeter2;whiteSpace=wrap;html=1;fixedSize=1;rounded=0;sketch=0;size=20;fillColor=#eeeeee;strokeColor=#36393d;" parent="LE1P0ZQWoaHicoNtDAZf-2" vertex="1">
          <mxGeometry x="150" y="940" width="120" height="40" as="geometry" />
        </mxCell>
        <mxCell id="xOhRouxDfGiZBzLTzBQK-286" value="v" style="edgeStyle=orthogonalEdgeStyle;rounded=0;sketch=0;orthogonalLoop=1;jettySize=auto;html=1;entryX=0.5;entryY=0;entryDx=0;entryDy=0;fontSize=16;fontColor=#5AA9E6;endArrow=block;endFill=0;startSize=10;endSize=10;strokeColor=#000000;strokeWidth=2;fillColor=#FFE45E;" parent="LE1P0ZQWoaHicoNtDAZf-2" source="xOhRouxDfGiZBzLTzBQK-247" target="xOhRouxDfGiZBzLTzBQK-281" edge="1">
          <mxGeometry relative="1" as="geometry">
            <Array as="points">
              <mxPoint x="1060" y="485" />
            </Array>
          </mxGeometry>
        </mxCell>
        <mxCell id="xOhRouxDfGiZBzLTzBQK-265" value="" style="edgeStyle=orthogonalEdgeStyle;rounded=0;sketch=0;orthogonalLoop=1;jettySize=auto;html=1;fontColor=#5AA9E6;endArrow=none;endFill=0;startSize=10;endSize=10;strokeColor=#000000;strokeWidth=2;fillColor=#FFE45E;" parent="LE1P0ZQWoaHicoNtDAZf-2" source="xOhRouxDfGiZBzLTzBQK-13" edge="1">
          <mxGeometry relative="1" as="geometry">
            <mxPoint x="-500" y="626.4827586206895" as="sourcePoint" />
            <mxPoint x="435" y="626" as="targetPoint" />
            <Array as="points" />
          </mxGeometry>
        </mxCell>
        <mxCell id="xOhRouxDfGiZBzLTzBQK-284" style="edgeStyle=orthogonalEdgeStyle;rounded=0;sketch=0;orthogonalLoop=1;jettySize=auto;html=1;fontSize=16;fontColor=#5AA9E6;endArrow=block;endFill=0;startSize=10;endSize=10;strokeColor=#000000;strokeWidth=2;fillColor=#FFE45E;" parent="LE1P0ZQWoaHicoNtDAZf-2" source="xOhRouxDfGiZBzLTzBQK-268" target="xOhRouxDfGiZBzLTzBQK-65" edge="1">
          <mxGeometry relative="1" as="geometry">
            <Array as="points">
              <mxPoint x="909.97" y="775" />
              <mxPoint x="909.97" y="710" />
              <mxPoint x="409.97" y="710" />
            </Array>
          </mxGeometry>
        </mxCell>
        <mxCell id="xOhRouxDfGiZBzLTzBQK-268" value="Email Inválido" style="swimlane;rounded=0;labelBorderColor=none;sketch=0;align=center;fillColor=#ffcccc;strokeColor=#36393d;" parent="LE1P0ZQWoaHicoNtDAZf-2" vertex="1">
          <mxGeometry x="669.97" y="740" width="200" height="70" as="geometry" />
        </mxCell>
        <mxCell id="xOhRouxDfGiZBzLTzBQK-269" value="&lt;div&gt;Email inválido.&lt;/div&gt;&lt;div&gt;Informe novamente&lt;/div&gt;" style="text;html=1;align=center;verticalAlign=middle;resizable=0;points=[];autosize=1;" parent="xOhRouxDfGiZBzLTzBQK-268" vertex="1">
          <mxGeometry x="40" y="30" width="120" height="30" as="geometry" />
        </mxCell>
        <mxCell id="xOhRouxDfGiZBzLTzBQK-285" style="edgeStyle=orthogonalEdgeStyle;rounded=0;sketch=0;orthogonalLoop=1;jettySize=auto;html=1;fontSize=16;fontColor=#5AA9E6;endArrow=block;endFill=0;startSize=10;endSize=10;strokeColor=#000000;strokeWidth=2;fillColor=#FFE45E;" parent="LE1P0ZQWoaHicoNtDAZf-2" source="xOhRouxDfGiZBzLTzBQK-270" target="xOhRouxDfGiZBzLTzBQK-65" edge="1">
          <mxGeometry relative="1" as="geometry">
            <Array as="points">
              <mxPoint x="909.97" y="870" />
              <mxPoint x="909.97" y="710" />
              <mxPoint x="409.97" y="710" />
            </Array>
          </mxGeometry>
        </mxCell>
        <mxCell id="xOhRouxDfGiZBzLTzBQK-270" value="Senha Inválida" style="swimlane;rounded=0;labelBorderColor=none;sketch=0;align=center;fillColor=#ffcccc;strokeColor=#36393d;" parent="LE1P0ZQWoaHicoNtDAZf-2" vertex="1">
          <mxGeometry x="669.97" y="835" width="200" height="70" as="geometry" />
        </mxCell>
        <mxCell id="xOhRouxDfGiZBzLTzBQK-271" value="&lt;div&gt;Senha inválida.&lt;/div&gt;&lt;div&gt;Informe novamente&lt;/div&gt;" style="text;html=1;align=center;verticalAlign=middle;resizable=0;points=[];autosize=1;" parent="xOhRouxDfGiZBzLTzBQK-270" vertex="1">
          <mxGeometry x="40" y="30" width="120" height="30" as="geometry" />
        </mxCell>
        <mxCell id="xOhRouxDfGiZBzLTzBQK-274" value="&lt;div&gt;Possíveis &lt;br&gt;&lt;/div&gt;&lt;div&gt;resultados&lt;/div&gt;" style="shape=note;whiteSpace=wrap;html=1;backgroundOutline=1;darkOpacity=0.05;rounded=1;labelBorderColor=none;sketch=0;align=center;size=8;fillColor=#ffff88;strokeColor=#36393d;" parent="LE1P0ZQWoaHicoNtDAZf-2" vertex="1">
          <mxGeometry x="569.97" y="730" width="80" height="40" as="geometry" />
        </mxCell>
        <mxCell id="xOhRouxDfGiZBzLTzBQK-281" value="&lt;div&gt;&lt;font style=&quot;font-size: 16px&quot;&gt;Prossegue&lt;/font&gt;&lt;/div&gt;&lt;div&gt;&lt;font style=&quot;font-size: 16px&quot;&gt;para tela&lt;/font&gt;&lt;/div&gt;&lt;div&gt;&lt;font style=&quot;font-size: 16px&quot;&gt;principal&lt;/font&gt;&lt;/div&gt;" style="shape=hexagon;perimeter=hexagonPerimeter2;whiteSpace=wrap;html=1;fixedSize=1;rounded=0;sketch=0;size=30;fontStyle=1;fillColor=#cdeb8b;strokeColor=#36393d;" parent="LE1P0ZQWoaHicoNtDAZf-2" vertex="1">
          <mxGeometry x="980" y="540" width="160" height="80" as="geometry" />
        </mxCell>
        <mxCell id="xOhRouxDfGiZBzLTzBQK-283" style="edgeStyle=orthogonalEdgeStyle;rounded=0;sketch=0;orthogonalLoop=1;jettySize=auto;html=1;fontSize=16;fontColor=#5AA9E6;endArrow=block;endFill=0;startSize=10;endSize=10;strokeColor=#000000;strokeWidth=2;fillColor=#FFE45E;entryX=0.5;entryY=1;entryDx=0;entryDy=0;" parent="LE1P0ZQWoaHicoNtDAZf-2" source="xOhRouxDfGiZBzLTzBQK-149" target="xOhRouxDfGiZBzLTzBQK-281" edge="1">
          <mxGeometry relative="1" as="geometry">
            <mxPoint x="850" y="1040" as="targetPoint" />
            <Array as="points">
              <mxPoint x="1060" y="960" />
            </Array>
          </mxGeometry>
        </mxCell>
        <mxCell id="gIbWxe7YwDXyPc4GKkxw-31" style="edgeStyle=orthogonalEdgeStyle;rounded=0;orthogonalLoop=1;jettySize=auto;html=1;endArrow=block;endFill=0;startSize=10;endSize=10;strokeWidth=2;" edge="1" parent="LE1P0ZQWoaHicoNtDAZf-2" source="xOhRouxDfGiZBzLTzBQK-152" target="LE1P0ZQWoaHicoNtDAZf-87">
          <mxGeometry relative="1" as="geometry">
            <Array as="points">
              <mxPoint x="860" y="80" />
              <mxPoint x="470" y="80" />
            </Array>
          </mxGeometry>
        </mxCell>
        <mxCell id="xOhRouxDfGiZBzLTzBQK-152" value="Dado Inválido" style="swimlane;rounded=0;labelBorderColor=none;sketch=0;align=center;fillColor=#ffcccc;strokeColor=#36393d;" parent="LE1P0ZQWoaHicoNtDAZf-2" vertex="1">
          <mxGeometry x="759.94" y="130" width="200" height="90" as="geometry" />
        </mxCell>
        <mxCell id="xOhRouxDfGiZBzLTzBQK-153" value="&lt;div&gt;O dado informado para o/a&lt;/div&gt;&lt;div&gt;{dado} não atende ao&lt;/div&gt;&lt;div&gt;formato válido&lt;/div&gt;" style="text;html=1;align=center;verticalAlign=middle;resizable=0;points=[];autosize=1;" parent="xOhRouxDfGiZBzLTzBQK-152" vertex="1">
          <mxGeometry x="20" y="30" width="160" height="50" as="geometry" />
        </mxCell>
        <mxCell id="gIbWxe7YwDXyPc4GKkxw-32" style="edgeStyle=orthogonalEdgeStyle;rounded=0;orthogonalLoop=1;jettySize=auto;html=1;endArrow=block;endFill=0;startSize=10;endSize=10;strokeWidth=2;" edge="1" parent="LE1P0ZQWoaHicoNtDAZf-2" source="xOhRouxDfGiZBzLTzBQK-245" target="LE1P0ZQWoaHicoNtDAZf-87">
          <mxGeometry relative="1" as="geometry">
            <Array as="points">
              <mxPoint x="990" y="320" />
              <mxPoint x="990" y="80" />
              <mxPoint x="470" y="80" />
            </Array>
          </mxGeometry>
        </mxCell>
        <mxCell id="xOhRouxDfGiZBzLTzBQK-245" value="Dado Ausente" style="swimlane;rounded=0;labelBorderColor=none;sketch=0;align=center;fillColor=#ffcccc;strokeColor=#36393d;" parent="LE1P0ZQWoaHicoNtDAZf-2" vertex="1">
          <mxGeometry x="759.94" y="280" width="200" height="80" as="geometry" />
        </mxCell>
        <mxCell id="xOhRouxDfGiZBzLTzBQK-246" value="Favor preencher o/a {dado}" style="text;html=1;align=center;verticalAlign=middle;resizable=0;points=[];autosize=1;" parent="xOhRouxDfGiZBzLTzBQK-245" vertex="1">
          <mxGeometry x="20" y="45" width="160" height="20" as="geometry" />
        </mxCell>
        <mxCell id="xOhRouxDfGiZBzLTzBQK-247" value="Preenchimento Finalizado" style="swimlane;rounded=0;labelBorderColor=none;sketch=0;align=center;fillColor=#cdeb8b;strokeColor=#36393d;" parent="LE1P0ZQWoaHicoNtDAZf-2" vertex="1">
          <mxGeometry x="759.94" y="440" width="200" height="90" as="geometry" />
        </mxCell>
        <mxCell id="xOhRouxDfGiZBzLTzBQK-248" value="&lt;div&gt;Dados são enviados para&lt;/div&gt;&lt;div&gt;o banco de dados&lt;/div&gt;" style="text;html=1;align=center;verticalAlign=middle;resizable=0;points=[];autosize=1;" parent="xOhRouxDfGiZBzLTzBQK-247" vertex="1">
          <mxGeometry x="25" y="40" width="150" height="30" as="geometry" />
        </mxCell>
        <mxCell id="xOhRouxDfGiZBzLTzBQK-250" value="&lt;div&gt;Possíveis &lt;br&gt;&lt;/div&gt;&lt;div&gt;resultados&lt;/div&gt;" style="shape=note;whiteSpace=wrap;html=1;backgroundOutline=1;darkOpacity=0.05;rounded=1;labelBorderColor=none;sketch=0;align=center;size=8;fillColor=#ffff88;strokeColor=#36393d;" parent="LE1P0ZQWoaHicoNtDAZf-2" vertex="1">
          <mxGeometry x="649.97" y="369.5" width="80" height="40" as="geometry" />
        </mxCell>
        <mxCell id="xOhRouxDfGiZBzLTzBQK-254" value="Solicitação de preenchimento" style="shape=note;whiteSpace=wrap;html=1;backgroundOutline=1;darkOpacity=0.05;rounded=1;labelBorderColor=none;sketch=0;align=center;size=8;fillColor=#ffcccc;strokeColor=#36393d;" parent="LE1P0ZQWoaHicoNtDAZf-2" vertex="1">
          <mxGeometry x="679.94" y="60" width="120" height="40" as="geometry" />
        </mxCell>
        <mxCell id="LE1P0ZQWoaHicoNtDAZf-3" value="Dashboard" style="swimlane;startSize=20;rounded=0;sketch=0;" parent="LE1P0ZQWoaHicoNtDAZf-1" vertex="1">
          <mxGeometry x="1380" width="870" height="1150" as="geometry" />
        </mxCell>
        <mxCell id="OxGUQbnt3fiG56Fqti0W-104" style="edgeStyle=orthogonalEdgeStyle;rounded=0;sketch=0;orthogonalLoop=1;jettySize=auto;html=1;entryX=0;entryY=0.5;entryDx=0;entryDy=0;fontSize=16;fontColor=#5AA9E6;endArrow=block;endFill=0;startSize=10;endSize=10;strokeColor=#000000;strokeWidth=2;fillColor=#FFE45E;" parent="LE1P0ZQWoaHicoNtDAZf-3" source="Lux9b_ITZ5xcmjfqSg10-1" target="OxGUQbnt3fiG56Fqti0W-1" edge="1">
          <mxGeometry relative="1" as="geometry" />
        </mxCell>
        <mxCell id="OxGUQbnt3fiG56Fqti0W-105" style="edgeStyle=orthogonalEdgeStyle;rounded=0;sketch=0;orthogonalLoop=1;jettySize=auto;html=1;entryX=0;entryY=0.5;entryDx=0;entryDy=0;fontSize=16;fontColor=#5AA9E6;endArrow=block;endFill=0;startSize=10;endSize=10;strokeColor=#000000;strokeWidth=2;fillColor=#FFE45E;" parent="LE1P0ZQWoaHicoNtDAZf-3" source="Lux9b_ITZ5xcmjfqSg10-1" target="OxGUQbnt3fiG56Fqti0W-2" edge="1">
          <mxGeometry relative="1" as="geometry" />
        </mxCell>
        <mxCell id="OxGUQbnt3fiG56Fqti0W-106" style="edgeStyle=orthogonalEdgeStyle;rounded=0;sketch=0;orthogonalLoop=1;jettySize=auto;html=1;entryX=0;entryY=0.5;entryDx=0;entryDy=0;fontSize=16;fontColor=#5AA9E6;endArrow=block;endFill=0;startSize=10;endSize=10;strokeColor=#000000;strokeWidth=2;fillColor=#FFE45E;" parent="LE1P0ZQWoaHicoNtDAZf-3" source="Lux9b_ITZ5xcmjfqSg10-1" target="OxGUQbnt3fiG56Fqti0W-3" edge="1">
          <mxGeometry relative="1" as="geometry" />
        </mxCell>
        <mxCell id="OxGUQbnt3fiG56Fqti0W-107" style="edgeStyle=orthogonalEdgeStyle;rounded=0;sketch=0;orthogonalLoop=1;jettySize=auto;html=1;entryX=0;entryY=0.5;entryDx=0;entryDy=0;fontSize=16;fontColor=#5AA9E6;endArrow=block;endFill=0;startSize=10;endSize=10;strokeColor=#000000;strokeWidth=2;fillColor=#FFE45E;" parent="LE1P0ZQWoaHicoNtDAZf-3" source="Lux9b_ITZ5xcmjfqSg10-1" target="OxGUQbnt3fiG56Fqti0W-4" edge="1">
          <mxGeometry relative="1" as="geometry" />
        </mxCell>
        <mxCell id="OxGUQbnt3fiG56Fqti0W-108" style="edgeStyle=orthogonalEdgeStyle;rounded=0;sketch=0;orthogonalLoop=1;jettySize=auto;html=1;entryX=0;entryY=0.5;entryDx=0;entryDy=0;fontSize=16;fontColor=#5AA9E6;endArrow=block;endFill=0;startSize=10;endSize=10;strokeColor=#000000;strokeWidth=2;fillColor=#FFE45E;" parent="LE1P0ZQWoaHicoNtDAZf-3" source="Lux9b_ITZ5xcmjfqSg10-1" target="OxGUQbnt3fiG56Fqti0W-5" edge="1">
          <mxGeometry relative="1" as="geometry" />
        </mxCell>
        <mxCell id="OxGUQbnt3fiG56Fqti0W-109" style="edgeStyle=orthogonalEdgeStyle;rounded=0;sketch=0;orthogonalLoop=1;jettySize=auto;html=1;entryX=0;entryY=0.5;entryDx=0;entryDy=0;fontSize=16;fontColor=#5AA9E6;endArrow=block;endFill=0;startSize=10;endSize=10;strokeColor=#000000;strokeWidth=2;fillColor=#FFE45E;" parent="LE1P0ZQWoaHicoNtDAZf-3" source="Lux9b_ITZ5xcmjfqSg10-1" target="OxGUQbnt3fiG56Fqti0W-7" edge="1">
          <mxGeometry relative="1" as="geometry" />
        </mxCell>
        <mxCell id="Lux9b_ITZ5xcmjfqSg10-1" value="Tela principal" style="shape=hexagon;perimeter=hexagonPerimeter2;whiteSpace=wrap;html=1;fixedSize=1;rounded=0;labelBackgroundColor=none;labelBorderColor=none;sketch=0;align=center;fillColor=#cce5ff;strokeColor=#36393d;" parent="LE1P0ZQWoaHicoNtDAZf-3" vertex="1">
          <mxGeometry x="20" y="80" width="120" height="40" as="geometry" />
        </mxCell>
        <mxCell id="OxGUQbnt3fiG56Fqti0W-1" value="Meu Perfil" style="shape=hexagon;perimeter=hexagonPerimeter2;whiteSpace=wrap;html=1;fixedSize=1;rounded=0;labelBackgroundColor=none;labelBorderColor=none;sketch=0;align=center;fillColor=#cce5ff;strokeColor=#36393d;" parent="LE1P0ZQWoaHicoNtDAZf-3" vertex="1">
          <mxGeometry x="140" y="114" width="120" height="40" as="geometry" />
        </mxCell>
        <mxCell id="OxGUQbnt3fiG56Fqti0W-2" value="Agendamentos" style="shape=hexagon;perimeter=hexagonPerimeter2;whiteSpace=wrap;html=1;fixedSize=1;rounded=0;labelBackgroundColor=none;labelBorderColor=none;sketch=0;align=center;fillColor=#cce5ff;strokeColor=#36393d;" parent="LE1P0ZQWoaHicoNtDAZf-3" vertex="1">
          <mxGeometry x="140" y="450" width="120" height="40" as="geometry" />
        </mxCell>
        <mxCell id="OxGUQbnt3fiG56Fqti0W-3" value="&lt;div&gt;Novo &lt;br&gt;&lt;/div&gt;&lt;div&gt;Agendamento&lt;/div&gt;" style="shape=hexagon;perimeter=hexagonPerimeter2;whiteSpace=wrap;html=1;fixedSize=1;rounded=0;labelBackgroundColor=none;labelBorderColor=none;sketch=0;align=center;fillColor=#cce5ff;strokeColor=#36393d;" parent="LE1P0ZQWoaHicoNtDAZf-3" vertex="1">
          <mxGeometry x="140" y="680" width="120" height="40" as="geometry" />
        </mxCell>
        <mxCell id="OxGUQbnt3fiG56Fqti0W-4" value="Histórico" style="shape=hexagon;perimeter=hexagonPerimeter2;whiteSpace=wrap;html=1;fixedSize=1;rounded=0;labelBackgroundColor=none;labelBorderColor=none;sketch=0;align=center;fillColor=#cce5ff;strokeColor=#36393d;" parent="LE1P0ZQWoaHicoNtDAZf-3" vertex="1">
          <mxGeometry x="140" y="780" width="120" height="40" as="geometry" />
        </mxCell>
        <mxCell id="OxGUQbnt3fiG56Fqti0W-5" value="Configurações" style="shape=hexagon;perimeter=hexagonPerimeter2;whiteSpace=wrap;html=1;fixedSize=1;rounded=0;labelBackgroundColor=none;labelBorderColor=none;sketch=0;align=center;fillColor=#cce5ff;strokeColor=#36393d;" parent="LE1P0ZQWoaHicoNtDAZf-3" vertex="1">
          <mxGeometry x="140" y="1020" width="120" height="40" as="geometry" />
        </mxCell>
        <mxCell id="OxGUQbnt3fiG56Fqti0W-7" value="Sair" style="shape=hexagon;perimeter=hexagonPerimeter2;whiteSpace=wrap;html=1;fixedSize=1;rounded=0;labelBackgroundColor=none;labelBorderColor=none;sketch=0;align=center;fillColor=#cce5ff;strokeColor=#36393d;" parent="LE1P0ZQWoaHicoNtDAZf-3" vertex="1">
          <mxGeometry x="140" y="1080" width="120" height="40" as="geometry" />
        </mxCell>
        <mxCell id="OxGUQbnt3fiG56Fqti0W-54" value="" style="shape=table;html=1;whiteSpace=wrap;startSize=0;container=1;collapsible=0;childLayout=tableLayout;columnLines=1;rowLines=1;rounded=0;sketch=0;align=left;labelBorderColor=#000000;fixedRows=0;autosize=1;resizeHeight=1;resizeWidth=1;" parent="LE1P0ZQWoaHicoNtDAZf-3" vertex="1">
          <mxGeometry x="270" y="114" width="220" height="319" as="geometry" />
        </mxCell>
        <mxCell id="OxGUQbnt3fiG56Fqti0W-55" value="" style="shape=partialRectangle;html=1;whiteSpace=wrap;collapsible=0;dropTarget=0;pointerEvents=0;top=0;left=0;bottom=0;right=0;points=[[0,0.5],[1,0.5]];portConstraint=eastwest;rounded=0;sketch=0;align=left;" parent="OxGUQbnt3fiG56Fqti0W-54" vertex="1">
          <mxGeometry width="220" height="20" as="geometry" />
        </mxCell>
        <mxCell id="OxGUQbnt3fiG56Fqti0W-56" value="Dados Exibidos" style="shape=partialRectangle;html=1;whiteSpace=wrap;connectable=0;top=0;left=0;bottom=1;right=1;overflow=hidden;pointerEvents=1;rounded=0;sketch=0;align=center;fontStyle=1" parent="OxGUQbnt3fiG56Fqti0W-55" vertex="1">
          <mxGeometry width="130" height="20" as="geometry">
            <mxRectangle width="130" height="20" as="alternateBounds" />
          </mxGeometry>
        </mxCell>
        <mxCell id="OxGUQbnt3fiG56Fqti0W-57" value="Operações" style="shape=partialRectangle;html=1;whiteSpace=wrap;connectable=0;top=0;left=0;bottom=1;right=0;overflow=hidden;pointerEvents=1;rounded=0;sketch=0;align=center;fontStyle=1" parent="OxGUQbnt3fiG56Fqti0W-55" vertex="1">
          <mxGeometry x="130" width="90" height="20" as="geometry">
            <mxRectangle width="90" height="20" as="alternateBounds" />
          </mxGeometry>
        </mxCell>
        <mxCell id="OxGUQbnt3fiG56Fqti0W-58" value="" style="shape=partialRectangle;html=1;whiteSpace=wrap;collapsible=0;dropTarget=0;pointerEvents=0;top=0;left=0;bottom=0;right=0;points=[[0,0.5],[1,0.5]];portConstraint=eastwest;rounded=0;sketch=0;align=left;" parent="OxGUQbnt3fiG56Fqti0W-54" vertex="1">
          <mxGeometry y="20" width="220" height="20" as="geometry" />
        </mxCell>
        <mxCell id="OxGUQbnt3fiG56Fqti0W-59" value="Nome" style="shape=partialRectangle;html=1;whiteSpace=wrap;connectable=0;top=0;left=0;bottom=1;right=1;overflow=hidden;pointerEvents=1;rounded=0;labelBackgroundColor=none;sketch=0;align=left;" parent="OxGUQbnt3fiG56Fqti0W-58" vertex="1">
          <mxGeometry width="130" height="20" as="geometry">
            <mxRectangle width="130" height="20" as="alternateBounds" />
          </mxGeometry>
        </mxCell>
        <mxCell id="OxGUQbnt3fiG56Fqti0W-60" value="Alterar" style="shape=partialRectangle;html=1;whiteSpace=wrap;connectable=0;top=0;left=0;bottom=1;right=0;overflow=hidden;pointerEvents=1;rounded=0;labelBackgroundColor=none;sketch=0;align=left;" parent="OxGUQbnt3fiG56Fqti0W-58" vertex="1">
          <mxGeometry x="130" width="90" height="20" as="geometry">
            <mxRectangle width="90" height="20" as="alternateBounds" />
          </mxGeometry>
        </mxCell>
        <mxCell id="OxGUQbnt3fiG56Fqti0W-61" value="" style="shape=partialRectangle;html=1;whiteSpace=wrap;collapsible=0;dropTarget=0;pointerEvents=0;top=0;left=0;bottom=0;right=0;points=[[0,0.5],[1,0.5]];portConstraint=eastwest;rounded=0;sketch=0;align=left;" parent="OxGUQbnt3fiG56Fqti0W-54" vertex="1">
          <mxGeometry y="40" width="220" height="20" as="geometry" />
        </mxCell>
        <mxCell id="OxGUQbnt3fiG56Fqti0W-62" value="Sobrenome" style="shape=partialRectangle;html=1;whiteSpace=wrap;connectable=0;top=0;left=0;bottom=1;right=1;overflow=hidden;pointerEvents=1;rounded=0;labelBackgroundColor=none;sketch=0;align=left;" parent="OxGUQbnt3fiG56Fqti0W-61" vertex="1">
          <mxGeometry width="130" height="20" as="geometry">
            <mxRectangle width="130" height="20" as="alternateBounds" />
          </mxGeometry>
        </mxCell>
        <mxCell id="OxGUQbnt3fiG56Fqti0W-63" value="Alterar" style="shape=partialRectangle;html=1;whiteSpace=wrap;connectable=0;top=0;left=0;bottom=1;right=0;overflow=visible;pointerEvents=1;rounded=0;labelBackgroundColor=none;sketch=0;align=left;resizeHeight=1;" parent="OxGUQbnt3fiG56Fqti0W-61" vertex="1">
          <mxGeometry x="130" width="90" height="20" as="geometry">
            <mxRectangle width="90" height="20" as="alternateBounds" />
          </mxGeometry>
        </mxCell>
        <mxCell id="OxGUQbnt3fiG56Fqti0W-64" style="shape=partialRectangle;html=1;whiteSpace=wrap;collapsible=0;dropTarget=0;pointerEvents=0;top=0;left=0;bottom=0;right=0;points=[[0,0.5],[1,0.5]];portConstraint=eastwest;rounded=0;sketch=0;align=left;" parent="OxGUQbnt3fiG56Fqti0W-54" vertex="1">
          <mxGeometry y="60" width="220" height="20" as="geometry" />
        </mxCell>
        <mxCell id="OxGUQbnt3fiG56Fqti0W-65" value="Email" style="shape=partialRectangle;html=1;whiteSpace=wrap;connectable=0;top=0;left=0;bottom=1;right=1;overflow=hidden;pointerEvents=1;rounded=0;labelBackgroundColor=none;sketch=0;align=left;" parent="OxGUQbnt3fiG56Fqti0W-64" vertex="1">
          <mxGeometry width="130" height="20" as="geometry">
            <mxRectangle width="130" height="20" as="alternateBounds" />
          </mxGeometry>
        </mxCell>
        <mxCell id="OxGUQbnt3fiG56Fqti0W-66" value="Alterar" style="shape=partialRectangle;html=1;whiteSpace=wrap;connectable=0;top=0;left=0;bottom=1;right=0;overflow=hidden;pointerEvents=1;rounded=0;labelBackgroundColor=none;sketch=0;align=left;" parent="OxGUQbnt3fiG56Fqti0W-64" vertex="1">
          <mxGeometry x="130" width="90" height="20" as="geometry">
            <mxRectangle width="90" height="20" as="alternateBounds" />
          </mxGeometry>
        </mxCell>
        <mxCell id="OxGUQbnt3fiG56Fqti0W-67" style="shape=partialRectangle;html=1;whiteSpace=wrap;collapsible=0;dropTarget=0;pointerEvents=0;top=0;left=0;bottom=0;right=0;points=[[0,0.5],[1,0.5]];portConstraint=eastwest;rounded=0;sketch=0;align=left;" parent="OxGUQbnt3fiG56Fqti0W-54" vertex="1">
          <mxGeometry y="80" width="220" height="24" as="geometry" />
        </mxCell>
        <mxCell id="OxGUQbnt3fiG56Fqti0W-68" value="Telefone" style="shape=partialRectangle;html=1;whiteSpace=wrap;connectable=0;top=0;left=0;bottom=1;right=1;overflow=hidden;pointerEvents=1;rounded=0;labelBackgroundColor=none;sketch=0;align=left;" parent="OxGUQbnt3fiG56Fqti0W-67" vertex="1">
          <mxGeometry width="130" height="24" as="geometry">
            <mxRectangle width="130" height="24" as="alternateBounds" />
          </mxGeometry>
        </mxCell>
        <mxCell id="OxGUQbnt3fiG56Fqti0W-69" value="Alterar" style="shape=partialRectangle;html=1;whiteSpace=wrap;connectable=0;top=0;left=0;bottom=1;right=0;overflow=hidden;pointerEvents=1;rounded=0;labelBackgroundColor=none;sketch=0;align=left;" parent="OxGUQbnt3fiG56Fqti0W-67" vertex="1">
          <mxGeometry x="130" width="90" height="24" as="geometry">
            <mxRectangle width="90" height="24" as="alternateBounds" />
          </mxGeometry>
        </mxCell>
        <mxCell id="OxGUQbnt3fiG56Fqti0W-70" style="shape=partialRectangle;html=1;whiteSpace=wrap;collapsible=0;dropTarget=0;pointerEvents=0;top=0;left=0;bottom=0;right=0;points=[[0,0.5],[1,0.5]];portConstraint=eastwest;rounded=0;sketch=0;align=left;" parent="OxGUQbnt3fiG56Fqti0W-54" vertex="1">
          <mxGeometry y="104" width="220" height="24" as="geometry" />
        </mxCell>
        <mxCell id="OxGUQbnt3fiG56Fqti0W-71" value="Telefone 2 (opcional)" style="shape=partialRectangle;html=1;whiteSpace=wrap;connectable=0;top=0;left=0;bottom=1;right=1;overflow=hidden;pointerEvents=1;rounded=0;labelBackgroundColor=none;sketch=0;align=left;" parent="OxGUQbnt3fiG56Fqti0W-70" vertex="1">
          <mxGeometry width="130" height="24" as="geometry">
            <mxRectangle width="130" height="24" as="alternateBounds" />
          </mxGeometry>
        </mxCell>
        <mxCell id="OxGUQbnt3fiG56Fqti0W-72" value="Alterar" style="shape=partialRectangle;html=1;whiteSpace=wrap;connectable=0;top=0;left=0;bottom=1;right=0;overflow=hidden;pointerEvents=1;rounded=0;labelBackgroundColor=none;sketch=0;align=left;" parent="OxGUQbnt3fiG56Fqti0W-70" vertex="1">
          <mxGeometry x="130" width="90" height="24" as="geometry">
            <mxRectangle width="90" height="24" as="alternateBounds" />
          </mxGeometry>
        </mxCell>
        <mxCell id="OxGUQbnt3fiG56Fqti0W-76" style="shape=partialRectangle;html=1;whiteSpace=wrap;collapsible=0;dropTarget=0;pointerEvents=0;top=0;left=0;bottom=0;right=0;points=[[0,0.5],[1,0.5]];portConstraint=eastwest;rounded=0;sketch=0;align=left;" parent="OxGUQbnt3fiG56Fqti0W-54" vertex="1">
          <mxGeometry y="128" width="220" height="23" as="geometry" />
        </mxCell>
        <mxCell id="OxGUQbnt3fiG56Fqti0W-77" value="Endereço" style="shape=partialRectangle;html=1;whiteSpace=wrap;connectable=0;top=0;left=0;bottom=1;right=1;overflow=hidden;pointerEvents=1;rounded=0;labelBackgroundColor=none;sketch=0;align=center;labelBorderColor=none;fontStyle=1;" parent="OxGUQbnt3fiG56Fqti0W-76" vertex="1">
          <mxGeometry width="130" height="23" as="geometry">
            <mxRectangle width="130" height="23" as="alternateBounds" />
          </mxGeometry>
        </mxCell>
        <mxCell id="OxGUQbnt3fiG56Fqti0W-78" value="Operações" style="shape=partialRectangle;html=1;whiteSpace=wrap;connectable=0;top=0;left=0;bottom=1;right=0;overflow=hidden;pointerEvents=1;rounded=0;labelBackgroundColor=none;sketch=0;align=center;fontStyle=1" parent="OxGUQbnt3fiG56Fqti0W-76" vertex="1">
          <mxGeometry x="130" width="90" height="23" as="geometry">
            <mxRectangle width="90" height="23" as="alternateBounds" />
          </mxGeometry>
        </mxCell>
        <mxCell id="OxGUQbnt3fiG56Fqti0W-79" style="shape=partialRectangle;html=1;whiteSpace=wrap;collapsible=0;dropTarget=0;pointerEvents=0;top=0;left=0;bottom=0;right=0;points=[[0,0.5],[1,0.5]];portConstraint=eastwest;rounded=0;sketch=0;align=left;" parent="OxGUQbnt3fiG56Fqti0W-54" vertex="1">
          <mxGeometry y="151" width="220" height="30" as="geometry" />
        </mxCell>
        <mxCell id="OxGUQbnt3fiG56Fqti0W-80" value="CEP" style="shape=partialRectangle;html=1;whiteSpace=wrap;connectable=0;top=0;left=0;bottom=1;right=1;overflow=hidden;pointerEvents=1;rounded=0;labelBackgroundColor=none;sketch=0;align=left;labelBorderColor=none;fontStyle=0;" parent="OxGUQbnt3fiG56Fqti0W-79" vertex="1">
          <mxGeometry width="130" height="30" as="geometry">
            <mxRectangle width="130" height="30" as="alternateBounds" />
          </mxGeometry>
        </mxCell>
        <mxCell id="OxGUQbnt3fiG56Fqti0W-81" value="Alterar" style="shape=partialRectangle;html=1;whiteSpace=wrap;connectable=0;top=0;left=0;bottom=1;right=0;overflow=hidden;pointerEvents=1;rounded=0;labelBackgroundColor=none;sketch=0;align=left;" parent="OxGUQbnt3fiG56Fqti0W-79" vertex="1">
          <mxGeometry x="130" width="90" height="30" as="geometry">
            <mxRectangle width="90" height="30" as="alternateBounds" />
          </mxGeometry>
        </mxCell>
        <mxCell id="OxGUQbnt3fiG56Fqti0W-82" style="shape=partialRectangle;html=1;whiteSpace=wrap;collapsible=0;dropTarget=0;pointerEvents=0;top=0;left=0;bottom=0;right=0;points=[[0,0.5],[1,0.5]];portConstraint=eastwest;rounded=0;sketch=0;align=left;" parent="OxGUQbnt3fiG56Fqti0W-54" vertex="1">
          <mxGeometry y="181" width="220" height="24" as="geometry" />
        </mxCell>
        <mxCell id="OxGUQbnt3fiG56Fqti0W-83" value="Rua" style="shape=partialRectangle;html=1;whiteSpace=wrap;connectable=0;top=0;left=0;bottom=1;right=1;overflow=hidden;pointerEvents=1;rounded=0;labelBackgroundColor=none;sketch=0;align=left;labelBorderColor=none;fontStyle=0;" parent="OxGUQbnt3fiG56Fqti0W-82" vertex="1">
          <mxGeometry width="130" height="24" as="geometry">
            <mxRectangle width="130" height="24" as="alternateBounds" />
          </mxGeometry>
        </mxCell>
        <mxCell id="OxGUQbnt3fiG56Fqti0W-84" value="Alterar" style="shape=partialRectangle;html=1;whiteSpace=wrap;connectable=0;top=0;left=0;bottom=1;right=0;overflow=hidden;pointerEvents=1;rounded=0;labelBackgroundColor=none;sketch=0;align=left;" parent="OxGUQbnt3fiG56Fqti0W-82" vertex="1">
          <mxGeometry x="130" width="90" height="24" as="geometry">
            <mxRectangle width="90" height="24" as="alternateBounds" />
          </mxGeometry>
        </mxCell>
        <mxCell id="OxGUQbnt3fiG56Fqti0W-85" style="shape=partialRectangle;html=1;whiteSpace=wrap;collapsible=0;dropTarget=0;pointerEvents=0;top=0;left=0;bottom=0;right=0;points=[[0,0.5],[1,0.5]];portConstraint=eastwest;rounded=0;sketch=0;align=left;" parent="OxGUQbnt3fiG56Fqti0W-54" vertex="1">
          <mxGeometry y="205" width="220" height="23" as="geometry" />
        </mxCell>
        <mxCell id="OxGUQbnt3fiG56Fqti0W-86" value="Número&lt;span style=&quot;white-space: pre&quot;&gt;&lt;/span&gt;&lt;span style=&quot;white-space: pre&quot;&gt;&lt;/span&gt;&lt;span style=&quot;white-space: pre&quot;&gt;&lt;/span&gt;" style="shape=partialRectangle;html=1;whiteSpace=wrap;connectable=0;top=0;left=0;bottom=1;right=1;overflow=hidden;pointerEvents=1;rounded=0;labelBackgroundColor=none;sketch=0;align=left;labelBorderColor=none;fontStyle=0;" parent="OxGUQbnt3fiG56Fqti0W-85" vertex="1">
          <mxGeometry width="130" height="23" as="geometry">
            <mxRectangle width="130" height="23" as="alternateBounds" />
          </mxGeometry>
        </mxCell>
        <mxCell id="OxGUQbnt3fiG56Fqti0W-87" value="Alterar" style="shape=partialRectangle;html=1;whiteSpace=wrap;connectable=0;top=0;left=0;bottom=1;right=0;overflow=hidden;pointerEvents=1;rounded=0;labelBackgroundColor=none;sketch=0;align=left;" parent="OxGUQbnt3fiG56Fqti0W-85" vertex="1">
          <mxGeometry x="130" width="90" height="23" as="geometry">
            <mxRectangle width="90" height="23" as="alternateBounds" />
          </mxGeometry>
        </mxCell>
        <mxCell id="OxGUQbnt3fiG56Fqti0W-88" style="shape=partialRectangle;html=1;whiteSpace=wrap;collapsible=0;dropTarget=0;pointerEvents=0;top=0;left=0;bottom=0;right=0;points=[[0,0.5],[1,0.5]];portConstraint=eastwest;rounded=0;sketch=0;align=left;" parent="OxGUQbnt3fiG56Fqti0W-54" vertex="1">
          <mxGeometry y="228" width="220" height="22" as="geometry" />
        </mxCell>
        <mxCell id="OxGUQbnt3fiG56Fqti0W-89" value="Complemento" style="shape=partialRectangle;html=1;whiteSpace=wrap;connectable=0;top=0;left=0;bottom=1;right=1;overflow=hidden;pointerEvents=1;rounded=0;labelBackgroundColor=none;sketch=0;align=left;labelBorderColor=none;fontStyle=0;" parent="OxGUQbnt3fiG56Fqti0W-88" vertex="1">
          <mxGeometry width="130" height="22" as="geometry">
            <mxRectangle width="130" height="22" as="alternateBounds" />
          </mxGeometry>
        </mxCell>
        <mxCell id="OxGUQbnt3fiG56Fqti0W-90" value="Alterar" style="shape=partialRectangle;html=1;whiteSpace=wrap;connectable=0;top=0;left=0;bottom=1;right=0;overflow=hidden;pointerEvents=1;rounded=0;labelBackgroundColor=none;sketch=0;align=left;" parent="OxGUQbnt3fiG56Fqti0W-88" vertex="1">
          <mxGeometry x="130" width="90" height="22" as="geometry">
            <mxRectangle width="90" height="22" as="alternateBounds" />
          </mxGeometry>
        </mxCell>
        <mxCell id="OxGUQbnt3fiG56Fqti0W-91" style="shape=partialRectangle;html=1;whiteSpace=wrap;collapsible=0;dropTarget=0;pointerEvents=0;top=0;left=0;bottom=0;right=0;points=[[0,0.5],[1,0.5]];portConstraint=eastwest;rounded=0;sketch=0;align=left;" parent="OxGUQbnt3fiG56Fqti0W-54" vertex="1">
          <mxGeometry y="250" width="220" height="25" as="geometry" />
        </mxCell>
        <mxCell id="OxGUQbnt3fiG56Fqti0W-92" value="Bairro&lt;span style=&quot;white-space: pre&quot;&gt;&lt;/span&gt;&lt;span style=&quot;white-space: pre&quot;&gt;&lt;/span&gt;" style="shape=partialRectangle;html=1;whiteSpace=wrap;connectable=0;top=0;left=0;bottom=1;right=1;overflow=hidden;pointerEvents=1;rounded=0;labelBackgroundColor=none;sketch=0;align=left;labelBorderColor=none;fontStyle=0;" parent="OxGUQbnt3fiG56Fqti0W-91" vertex="1">
          <mxGeometry width="130" height="25" as="geometry">
            <mxRectangle width="130" height="25" as="alternateBounds" />
          </mxGeometry>
        </mxCell>
        <mxCell id="OxGUQbnt3fiG56Fqti0W-93" value="Alterar" style="shape=partialRectangle;html=1;whiteSpace=wrap;connectable=0;top=0;left=0;bottom=1;right=0;overflow=hidden;pointerEvents=1;rounded=0;labelBackgroundColor=none;sketch=0;align=left;" parent="OxGUQbnt3fiG56Fqti0W-91" vertex="1">
          <mxGeometry x="130" width="90" height="25" as="geometry">
            <mxRectangle width="90" height="25" as="alternateBounds" />
          </mxGeometry>
        </mxCell>
        <mxCell id="OxGUQbnt3fiG56Fqti0W-94" style="shape=partialRectangle;html=1;whiteSpace=wrap;collapsible=0;dropTarget=0;pointerEvents=0;top=0;left=0;bottom=0;right=0;points=[[0,0.5],[1,0.5]];portConstraint=eastwest;rounded=0;sketch=0;align=left;" parent="OxGUQbnt3fiG56Fqti0W-54" vertex="1">
          <mxGeometry y="275" width="220" height="22" as="geometry" />
        </mxCell>
        <mxCell id="OxGUQbnt3fiG56Fqti0W-95" value="Cidade" style="shape=partialRectangle;html=1;whiteSpace=wrap;connectable=0;top=0;left=0;bottom=1;right=1;overflow=hidden;pointerEvents=1;rounded=0;labelBackgroundColor=none;sketch=0;align=left;labelBorderColor=none;fontStyle=0;" parent="OxGUQbnt3fiG56Fqti0W-94" vertex="1">
          <mxGeometry width="130" height="22" as="geometry">
            <mxRectangle width="130" height="22" as="alternateBounds" />
          </mxGeometry>
        </mxCell>
        <mxCell id="OxGUQbnt3fiG56Fqti0W-96" value="Alterar" style="shape=partialRectangle;html=1;whiteSpace=wrap;connectable=0;top=0;left=0;bottom=1;right=0;overflow=hidden;pointerEvents=1;rounded=0;labelBackgroundColor=none;sketch=0;align=left;" parent="OxGUQbnt3fiG56Fqti0W-94" vertex="1">
          <mxGeometry x="130" width="90" height="22" as="geometry">
            <mxRectangle width="90" height="22" as="alternateBounds" />
          </mxGeometry>
        </mxCell>
        <mxCell id="OxGUQbnt3fiG56Fqti0W-97" style="shape=partialRectangle;html=1;whiteSpace=wrap;collapsible=0;dropTarget=0;pointerEvents=0;top=0;left=0;bottom=0;right=0;points=[[0,0.5],[1,0.5]];portConstraint=eastwest;rounded=0;sketch=0;align=left;" parent="OxGUQbnt3fiG56Fqti0W-54" vertex="1">
          <mxGeometry y="297" width="220" height="22" as="geometry" />
        </mxCell>
        <mxCell id="OxGUQbnt3fiG56Fqti0W-98" value="Estado" style="shape=partialRectangle;html=1;whiteSpace=wrap;connectable=0;top=0;left=0;bottom=1;right=1;overflow=hidden;pointerEvents=1;rounded=0;labelBackgroundColor=none;sketch=0;align=left;labelBorderColor=none;fontStyle=0;" parent="OxGUQbnt3fiG56Fqti0W-97" vertex="1">
          <mxGeometry width="130" height="22" as="geometry">
            <mxRectangle width="130" height="22" as="alternateBounds" />
          </mxGeometry>
        </mxCell>
        <mxCell id="OxGUQbnt3fiG56Fqti0W-99" value="Alterar" style="shape=partialRectangle;html=1;whiteSpace=wrap;connectable=0;top=0;left=0;bottom=1;right=0;overflow=hidden;pointerEvents=1;rounded=0;labelBackgroundColor=none;sketch=0;align=left;" parent="OxGUQbnt3fiG56Fqti0W-97" vertex="1">
          <mxGeometry x="130" width="90" height="22" as="geometry">
            <mxRectangle width="90" height="22" as="alternateBounds" />
          </mxGeometry>
        </mxCell>
        <mxCell id="OxGUQbnt3fiG56Fqti0W-110" value="" style="shape=table;html=1;whiteSpace=wrap;startSize=0;container=1;collapsible=0;childLayout=tableLayout;columnLines=1;rowLines=1;rounded=0;sketch=0;align=left;labelBorderColor=#000000;fixedRows=0;autosize=1;resizeHeight=1;resizeWidth=1;" parent="LE1P0ZQWoaHicoNtDAZf-3" vertex="1">
          <mxGeometry x="270" y="450" width="270" height="154.00000000000068" as="geometry" />
        </mxCell>
        <mxCell id="OxGUQbnt3fiG56Fqti0W-111" value="" style="shape=partialRectangle;html=1;whiteSpace=wrap;collapsible=0;dropTarget=0;pointerEvents=0;top=0;left=0;bottom=0;right=0;points=[[0,0.5],[1,0.5]];portConstraint=eastwest;rounded=0;sketch=0;align=left;" parent="OxGUQbnt3fiG56Fqti0W-110" vertex="1">
          <mxGeometry width="270" height="20" as="geometry" />
        </mxCell>
        <mxCell id="OxGUQbnt3fiG56Fqti0W-112" value="Dados por agendamento" style="shape=partialRectangle;html=1;whiteSpace=wrap;connectable=0;top=0;left=0;bottom=1;right=1;overflow=hidden;pointerEvents=1;rounded=0;sketch=0;align=center;fontStyle=1" parent="OxGUQbnt3fiG56Fqti0W-111" vertex="1">
          <mxGeometry width="160" height="20" as="geometry">
            <mxRectangle width="160" height="20" as="alternateBounds" />
          </mxGeometry>
        </mxCell>
        <mxCell id="OxGUQbnt3fiG56Fqti0W-113" value="Operações" style="shape=partialRectangle;html=1;whiteSpace=wrap;connectable=0;top=0;left=0;bottom=1;right=0;overflow=hidden;pointerEvents=1;rounded=0;sketch=0;align=center;fontStyle=1" parent="OxGUQbnt3fiG56Fqti0W-111" vertex="1">
          <mxGeometry x="160" width="110" height="20" as="geometry">
            <mxRectangle width="110" height="20" as="alternateBounds" />
          </mxGeometry>
        </mxCell>
        <mxCell id="OxGUQbnt3fiG56Fqti0W-114" value="" style="shape=partialRectangle;html=1;whiteSpace=wrap;collapsible=0;dropTarget=0;pointerEvents=0;top=0;left=0;bottom=0;right=0;points=[[0,0.5],[1,0.5]];portConstraint=eastwest;rounded=0;sketch=0;align=left;" parent="OxGUQbnt3fiG56Fqti0W-110" vertex="1">
          <mxGeometry y="20" width="270" height="70" as="geometry" />
        </mxCell>
        <mxCell id="OxGUQbnt3fiG56Fqti0W-115" value="&lt;div&gt;Equipamento:&lt;/div&gt;&lt;div&gt;&lt;span style=&quot;white-space: pre&quot;&gt; 1. &lt;/span&gt;Tipo&lt;/div&gt;&lt;div&gt;&lt;span style=&quot;white-space: pre&quot;&gt; &lt;/span&gt;2. Marca&lt;/div&gt;&lt;div&gt;&lt;span style=&quot;white-space: pre&quot;&gt; &lt;/span&gt;3. Modelo&lt;br&gt;&lt;/div&gt;" style="shape=partialRectangle;html=1;whiteSpace=wrap;connectable=0;top=0;left=0;bottom=1;right=1;overflow=hidden;pointerEvents=1;rounded=0;labelBackgroundColor=none;sketch=0;align=left;" parent="OxGUQbnt3fiG56Fqti0W-114" vertex="1">
          <mxGeometry width="160" height="70" as="geometry">
            <mxRectangle width="160" height="70" as="alternateBounds" />
          </mxGeometry>
        </mxCell>
        <mxCell id="OxGUQbnt3fiG56Fqti0W-116" value="" style="shape=partialRectangle;html=1;whiteSpace=wrap;connectable=0;top=0;left=0;bottom=1;right=0;overflow=hidden;pointerEvents=1;rounded=0;labelBackgroundColor=none;sketch=0;align=left;" parent="OxGUQbnt3fiG56Fqti0W-114" vertex="1">
          <mxGeometry x="160" width="110" height="70" as="geometry">
            <mxRectangle width="110" height="70" as="alternateBounds" />
          </mxGeometry>
        </mxCell>
        <mxCell id="OxGUQbnt3fiG56Fqti0W-117" value="" style="shape=partialRectangle;html=1;whiteSpace=wrap;collapsible=0;dropTarget=0;pointerEvents=0;top=0;left=0;bottom=0;right=0;points=[[0,0.5],[1,0.5]];portConstraint=eastwest;rounded=0;sketch=0;align=left;" parent="OxGUQbnt3fiG56Fqti0W-110" vertex="1">
          <mxGeometry y="90" width="270" height="20" as="geometry" />
        </mxCell>
        <mxCell id="OxGUQbnt3fiG56Fqti0W-118" value="Assistência" style="shape=partialRectangle;html=1;whiteSpace=wrap;connectable=0;top=0;left=0;bottom=1;right=1;overflow=hidden;pointerEvents=1;rounded=0;labelBackgroundColor=none;sketch=0;align=left;" parent="OxGUQbnt3fiG56Fqti0W-117" vertex="1">
          <mxGeometry width="160" height="20" as="geometry">
            <mxRectangle width="160" height="20" as="alternateBounds" />
          </mxGeometry>
        </mxCell>
        <mxCell id="OxGUQbnt3fiG56Fqti0W-119" value="Cancelar" style="shape=partialRectangle;html=1;whiteSpace=wrap;connectable=0;top=0;left=0;bottom=1;right=0;overflow=visible;pointerEvents=1;rounded=0;labelBackgroundColor=none;sketch=0;align=left;resizeHeight=1;" parent="OxGUQbnt3fiG56Fqti0W-117" vertex="1">
          <mxGeometry x="160" width="110" height="20" as="geometry">
            <mxRectangle width="110" height="20" as="alternateBounds" />
          </mxGeometry>
        </mxCell>
        <mxCell id="OxGUQbnt3fiG56Fqti0W-120" style="shape=partialRectangle;html=1;whiteSpace=wrap;collapsible=0;dropTarget=0;pointerEvents=0;top=0;left=0;bottom=0;right=0;points=[[0,0.5],[1,0.5]];portConstraint=eastwest;rounded=0;sketch=0;align=left;" parent="OxGUQbnt3fiG56Fqti0W-110" vertex="1">
          <mxGeometry y="110" width="270" height="20" as="geometry" />
        </mxCell>
        <mxCell id="OxGUQbnt3fiG56Fqti0W-121" value="Data e horário" style="shape=partialRectangle;html=1;whiteSpace=wrap;connectable=0;top=0;left=0;bottom=1;right=1;overflow=hidden;pointerEvents=1;rounded=0;labelBackgroundColor=none;sketch=0;align=left;" parent="OxGUQbnt3fiG56Fqti0W-120" vertex="1">
          <mxGeometry width="160" height="20" as="geometry">
            <mxRectangle width="160" height="20" as="alternateBounds" />
          </mxGeometry>
        </mxCell>
        <mxCell id="OxGUQbnt3fiG56Fqti0W-122" value="Remarcar" style="shape=partialRectangle;html=1;whiteSpace=wrap;connectable=0;top=0;left=0;bottom=1;right=0;overflow=hidden;pointerEvents=1;rounded=0;labelBackgroundColor=none;sketch=0;align=left;" parent="OxGUQbnt3fiG56Fqti0W-120" vertex="1">
          <mxGeometry x="160" width="110" height="20" as="geometry">
            <mxRectangle width="110" height="20" as="alternateBounds" />
          </mxGeometry>
        </mxCell>
        <mxCell id="OxGUQbnt3fiG56Fqti0W-123" style="shape=partialRectangle;html=1;whiteSpace=wrap;collapsible=0;dropTarget=0;pointerEvents=0;top=0;left=0;bottom=0;right=0;points=[[0,0.5],[1,0.5]];portConstraint=eastwest;rounded=0;sketch=0;align=left;" parent="OxGUQbnt3fiG56Fqti0W-110" vertex="1">
          <mxGeometry y="130" width="270" height="24" as="geometry" />
        </mxCell>
        <mxCell id="OxGUQbnt3fiG56Fqti0W-124" value="Código do agendamento" style="shape=partialRectangle;html=1;whiteSpace=wrap;connectable=0;top=0;left=0;bottom=1;right=1;overflow=hidden;pointerEvents=1;rounded=0;labelBackgroundColor=none;sketch=0;align=left;" parent="OxGUQbnt3fiG56Fqti0W-123" vertex="1">
          <mxGeometry width="160" height="24" as="geometry">
            <mxRectangle width="160" height="24" as="alternateBounds" />
          </mxGeometry>
        </mxCell>
        <mxCell id="OxGUQbnt3fiG56Fqti0W-125" value="Copiar código" style="shape=partialRectangle;html=1;whiteSpace=wrap;connectable=0;top=0;left=0;bottom=1;right=0;overflow=hidden;pointerEvents=1;rounded=0;labelBackgroundColor=none;sketch=0;align=left;" parent="OxGUQbnt3fiG56Fqti0W-123" vertex="1">
          <mxGeometry x="160" width="110" height="24" as="geometry">
            <mxRectangle width="110" height="24" as="alternateBounds" />
          </mxGeometry>
        </mxCell>
        <mxCell id="LE1P0ZQWoaHicoNtDAZf-4" value="Lane 3" style="swimlane;startSize=20;rounded=0;sketch=0;" parent="LE1P0ZQWoaHicoNtDAZf-1" vertex="1">
          <mxGeometry x="2250" width="430" height="1150" as="geometry" />
        </mxCell>
        <mxCell id="xOhRouxDfGiZBzLTzBQK-121" style="edgeStyle=orthogonalEdgeStyle;curved=0;rounded=1;sketch=0;orthogonalLoop=1;jettySize=auto;html=1;fontColor=#5AA9E6;endArrow=block;endFill=0;startSize=10;strokeWidth=2;endSize=10;" parent="LE1P0ZQWoaHicoNtDAZf-1" source="xOhRouxDfGiZBzLTzBQK-120" target="xOhRouxDfGiZBzLTzBQK-59" edge="1">
          <mxGeometry relative="1" as="geometry" />
        </mxCell>
        <mxCell id="xOhRouxDfGiZBzLTzBQK-143" style="edgeStyle=orthogonalEdgeStyle;rounded=0;sketch=0;orthogonalLoop=1;jettySize=auto;html=1;fontColor=#5AA9E6;endArrow=block;endFill=0;startSize=10;strokeWidth=2;entryX=0;entryY=0.5;entryDx=0;entryDy=0;endSize=10;" parent="LE1P0ZQWoaHicoNtDAZf-1" source="xOhRouxDfGiZBzLTzBQK-120" target="xOhRouxDfGiZBzLTzBQK-62" edge="1">
          <mxGeometry relative="1" as="geometry">
            <mxPoint x="150" y="560" as="targetPoint" />
            <Array as="points">
              <mxPoint x="100" y="710" />
            </Array>
          </mxGeometry>
        </mxCell>
        <mxCell id="OxGUQbnt3fiG56Fqti0W-100" style="edgeStyle=orthogonalEdgeStyle;rounded=0;sketch=0;orthogonalLoop=1;jettySize=auto;html=1;entryX=0;entryY=0.5;entryDx=0;entryDy=0;fontSize=16;fontColor=#5AA9E6;endArrow=block;endFill=0;startSize=10;endSize=10;strokeColor=#000000;strokeWidth=2;fillColor=#FFE45E;" parent="LE1P0ZQWoaHicoNtDAZf-1" source="xOhRouxDfGiZBzLTzBQK-281" target="Lux9b_ITZ5xcmjfqSg10-1" edge="1">
          <mxGeometry relative="1" as="geometry">
            <Array as="points">
              <mxPoint x="1360" y="553" />
              <mxPoint x="1360" y="100" />
            </Array>
          </mxGeometry>
        </mxCell>
      </root>
    </mxGraphModel>
  </diagram>
</mxfile>
